<?xml version="1.0" encoding="UTF-8" standalone="no"?>
<svg width="132px" height="132px" viewBox="0 0 132 132" version="1.1" xmlns="http://www.w3.org/2000/svg" xmlns:xlink="http://www.w3.org/1999/xlink">
    <!-- Generator: Sketch 48.2 (47327) - http://www.bohemiancoding.com/sketch -->
    <title>call-for-proposal</title>
    <desc>Created with Sketch.</desc>
    <defs></defs>
    <g id="Home-Page" stroke="none" stroke-width="1" fill="none" fill-rule="evenodd" transform="translate(-330.000000, -3922.000000)">
        <g id="Group-12" transform="translate(206.000000, 3922.000000)" fill-rule="nonzero">
            <g id="Group-11">
                <g id="call-for-proposal" transform="translate(124.000000, 0.000000)">
                    <path d="M66,132 C102.351305,132 132,102.351305 132,66 C132,29.6486953 102.351305,0 66,0 C29.6486953,0 0,29.6486953 0,66 C0,102.351305 29.6486953,132 66,132 Z" id="Shape" fill="#02EFA8"></path>
                    <polygon id="Shape" fill="#F0B97D" points="60.4225656 53 62.836921 53 70.163079 53 72.5774344 53 73.5628165 63.1209774 75.3116548 64.5075678 79 66.828331 66.5 96 54 66.828331 57.6883452 64.5075678 59.4371835 63.1222642 60.4215237 53.0002573 60.4225656 53.0002573"></polygon>
                    <polygon id="Shape" fill="#F1F1F1" points="55.9890134 65.0002595 46 68.204239 65.9914565 96 83 67.271875 75.9422473 65.023095 69.727458 69.4313888 62.2768905 69.4313888 55.9879804 65 55.9890134 65"></polygon>
                    <polygon id="Shape" fill="#FF5B61" points="64.1161021 69.089486 65.0287495 71.2173232 63 95.4683016 66.4993099 98 70 95.4683016 67.9712505 71.2173232 68.8838979 69.089486 66.4993099 69"></polygon>
                    <path d="M56.1684561,65 L38.5020195,70.6918494 C38.5020195,70.6918494 36.2151155,71.8918345 35.5253774,75.541572 C34.8632701,79.0377928 34.5221454,82.6098596 34,87.4306512 C42.4266318,95.2349853 53.6610219,100 65.9993544,100 C78.337687,100 89.5733682,95.2349853 98,87.429348 C97.4768216,82.6088171 97.1354387,79.0364896 96.4733315,75.5402688 C95.7825605,71.8894888 93.4956565,70.6905462 93.4956565,70.6905462 L75.9492977,65.07741 L65.9996127,94.5304762 L56.1697473,65 L56.1684561,65 Z" id="Shape" fill="#15BDB1"></path>
                    <path d="M56.5826356,65 L52.7380255,66.2278187 L52,75.9870356 C52,75.9870356 52.20424,76.7882062 52.8140945,76.7170548 L56.2830489,78.02228 C56.2830489,78.02228 56.5102138,78.2505901 56.3072763,78.5370204 L53.3382411,80.5720041 L63.5968739,99.916599 C64.5584172,99.9721128 65.5259522,100 66.499479,100 C67.4743083,100 68.4418433,99.9721128 69.4020841,99.916599 L79.6617589,80.5720041 L76.6927237,78.5370204 C76.4884837,78.2505901 76.7169511,78.02228 76.7169511,78.02228 L80.1859055,76.7170548 C80.79576,76.7884668 81,75.9870356 81,75.9870356 L80.263277,66.2590941 L76.5369386,65.0771459 L66.499479,94.5288962 L56.5826356,65 Z" id="Shape" fill="#20D0C2"></path>
                    <path d="M52.1580769,32.2761977 C52.1580769,33.2273652 51.8180662,34.1569508 51.8440445,35.0696348 C48.6591499,34.4655992 50.1967116,44.1249681 51.9999146,45.4523903 C52.1427956,45.55848 52.4947767,45.3221183 52.7922543,45.1291805 C53.4170081,48.6808474 58.7522479,58.174061 62.1436959,62.1695887 C63.0860478,63.2788508 68.8463646,63.2606491 69.7782742,62.2117126 C73.2524964,58.3079733 78.5806048,48.7026894 79.2089243,45.1291805 C79.5064019,45.3221183 79.858383,45.55848 80.0012639,45.4523903 C81.8031936,44.1249681 83.3407552,34.4655992 80.1558606,35.0696348 C80.1805655,34.1569508 79.8418282,33.2273652 79.8418282,32.2761977 C79.6658376,24.7760675 73.0092677,21.032503 65.9994432,21 C58.9908921,21.032503 52.3340675,24.7760675 52.1570582,32.2761977 L52.1580769,32.2761977 Z" id="Shape" fill="#FED198"></path>
                    <path d="M56.4559262,23.3092527 C55.4313219,23.1883412 51.7280832,24.3376589 51.2832474,28.3085082 C50.8384116,32.2793575 51.05056,35.9372594 51.05056,35.9372594 C51.05056,35.9372594 53.2204021,36.4917663 53.4939072,38.7453563 C53.7663724,41 53.572163,41 53.572163,41 L54.3581002,40.820345 L54.9173298,36.9569726 C58.1635134,34.8951551 54.8931512,31.8431278 58.1395947,31.1284592 C66.908138,37.4601119 74.6458373,36.3766501 78.1343277,33.3978546 C78.1343277,33.3978546 77.3205719,36.5136305 77.9486978,37.6239615 C78.5755237,38.7353462 78.201924,40.4857969 78.201924,40.4857969 L79.0167197,40.4468102 C79.0167197,40.4468102 78.8685278,35.8579688 80.6790694,35.8787793 C87.5588154,24.3695332 65.7800593,10.0743177 56.4559262,23.3092527 Z" id="Shape" fill="#666666"></path>
                    <g id="Group" transform="translate(56.000000, 62.000000)" fill="#FFFFFF">
                        <path d="M2.96435897,0.0820784314 C3.21512821,0.0986470588 0.0348717949,3.66421569 0.0348717949,3.66421569 L2.74205128,12.8781569 L9.99897436,7.49590196 C6.00769231,5.54819608 3.62538462,3.02619608 2.96435897,0.0820784314 Z" id="Shape"></path>
                        <path d="M17.035641,0.0820784314 C16.7835897,0.0986470588 19.9625641,3.66421569 19.9625641,3.66421569 L17.2553846,12.8781569 L9.99846154,7.49590196 C13.9907692,5.54819608 16.3730769,3.02594118 17.0341026,0.0820784314 L17.035641,0.0820784314 Z" id="Shape"></path>
                    </g>
                    <path d="M61.575888,53.3588492 L63.5198479,52.005908 C64.1171204,52.5751349 66.8956048,52.566915 67.4893624,52 L69.281933,53.3588492 C70.1516059,54.0174672 71.0478912,54.2437709 71.2713348,55.2656049 L71.9825887,58.5324942 C72.2060323,59.5566401 70.2249155,63 69.1340585,63 L61.4280135,63 C60.3374075,63 58.8403349,59.7141022 59.0138176,58.6778834 L59.5864862,55.2656049 C59.7599688,54.2293861 60.6796027,53.9830465 61.575888,53.3588492 Z M64.9400961,54.1222707 L61.1696724,56.1492422 C61.1696724,56.1492422 61.3441593,58.3907013 61.8332248,59.0935012 C62.321035,59.7950167 64.2416463,58.9576162 64.2416463,58.9576162 C64.2416463,58.9576162 64.2416463,57.2021577 64.8005065,57.2293861 C64.8062809,57.2293861 66.0517911,57.2293861 66.0565612,57.2293861 C66.6141662,57.2019008 66.6141662,58.9576162 66.6141662,58.9576162 C66.6141662,58.9576162 68.5347775,59.7950167 69.023843,59.0935012 C69.5116532,58.3907013 69.6873954,56.1492422 69.6873954,56.1492422 L65.9169717,54.1222707 L65.4281573,54.2627793 L64.9393429,54.1222707 L64.9400961,54.1222707 Z" id="Shape" fill="#666666"></path>
                    <path d="M40.2223963,59.7203345 L52,57 L52,59.0558551 L40.6690571,61.7761896 C40.3911747,61.8003761 38.5446013,62.5636822 37.965018,63.151961 C37.3854347,63.7404999 37.0245718,64.551919 37.0245718,65.4442199 C37.0245718,71.3010013 37.0340479,77.1528413 37.0340479,83 L36.0116456,83 L35,83 L35,81.9714223 L35,65.4442199 C35,63.985226 35.5864983,62.6575675 36.5330913,61.6976484 C37.4794281,60.7366889 39.4555946,59.8129195 40.2226524,59.7187741 L40.2226524,59.7203345 L40.2223963,59.7203345 Z" id="Shape" fill="#FFFFFF"></path>
                    <g id="Group" transform="translate(31.000000, 55.000000)" fill="#0E7886">
                        <path d="M14.4672929,2.0496 L23.7886869,0.144836364 C24.5655354,-0.0132363636 25.3350303,0.471672727 25.4994343,1.22461818 L25.7843838,2.53934545 C25.9487879,3.29229091 25.4471717,4.03810909 24.6703232,4.19643636 L15.3489293,6.1012 C14.5720808,6.25927273 13.8025859,5.77309091 13.6392323,5.02141818 L13.3529697,3.70669091 C13.1898788,2.95374545 13.6904444,2.20792727 14.4672929,2.0496 Z" id="Shape"></path>
                        <path d="M5.04715152,22.9360727 C7.81129293,22.9360727 10.0517576,25.1076 10.0517576,27.7866909 L10.0504444,27.8185091 L0.0435959596,27.8185091 L0.0422828283,27.7866909 C0.0425454545,25.1088727 2.2830101,22.9360727 5.04715152,22.9360727 Z" id="Shape"></path>
                    </g>
                    <g id="Group" transform="translate(21.000000, 83.000000)" fill="#FBB429">
                        <polygon id="Shape" points="0.00723863636 0.145204188 90.9917273 0.145204188 90.9917273 6.75994764 0.00723863636 6.75994764"></polygon>
                        <polygon id="Shape" points="11.8390483 6.75994764 79.1606932 6.75994764 79.1606932 48.9987173 11.8390483 48.9987173"></polygon>
                    </g>
                    <g id="Group" transform="translate(21.000000, 89.000000)" fill="#FBAB08">
                        <path d="M0.00723863636,0.0933333333 L11.8393068,7.82853333 L11.8393068,0.0933333333 L0.00723863636,0.0933333333 Z M90.9917273,0.0933333333 L79.1596591,7.82853333 L79.1596591,0.0933333333 L90.9917273,0.0933333333 Z" id="Shape"></path>
                        <polygon id="Shape" points="11.8390483 0.0933333333 79.1606932 0.0933333333 79.1606932 3.01493333 11.8390483 3.01493333"></polygon>
                    </g>
                    <rect id="Rectangle-path" fill="#F7A713" x="32" y="108" width="67" height="10"></rect>
                    <circle id="Oval" fill="#FAAC1B" cx="66" cy="113" r="12"></circle>
                </g>
            </g>
        </g>
    </g>
</svg>