<?xml version="1.0" encoding="UTF-8" standalone="no"?>
<svg width="24px" height="24px" viewBox="0 0 24 24" version="1.1" xmlns="http://www.w3.org/2000/svg" xmlns:xlink="http://www.w3.org/1999/xlink">
    <!-- Generator: Sketch 48.2 (47327) - http://www.bohemiancoding.com/sketch -->
    <title>google-map</title>
    <desc>Created with Sketch.</desc>
    <defs></defs>
    <g id="Home-Page" stroke="none" stroke-width="1" fill="none" fill-rule="evenodd" transform="translate(-943.000000, -5658.000000)">
        <g id="Group-4" transform="translate(923.000000, 5641.000000)" fill-rule="nonzero">
            <g id="google-map" transform="translate(20.000000, 17.000000)">
                <circle id="Oval" fill="#40A459" cx="12" cy="12" r="12"></circle>
                <path d="M12.0848118,0 C11.9941346,0 11.9039239,0.00140931912 11.8137132,0.0034293432 C11.790764,0.00394609354 11.7678615,0.00446284389 11.744959,0.00516750345 C11.6589929,0.00756334596 11.5732134,0.0107578026 11.4877604,0.01498576 C11.4656508,0.016066238 11.4436812,0.017616489 11.4216183,0.0187909216 C11.3565956,0.0224081741 11.2917129,0.0265421768 11.2269235,0.0311929299 C11.1943189,0.0335417951 11.1617609,0.0357967057 11.1292496,0.0383804574 C11.0541517,0.0443935524 10.9791938,0.0510643295 10.9044224,0.0584867436 C10.865754,0.0623388825 10.8272722,0.0666138172 10.7887904,0.0707947973 C10.7425655,0.0758683461 10.696434,0.0811767815 10.6503491,0.0867670807 C10.6104212,0.091605743 10.5704001,0.0962564961 10.5306122,0.101470977 C16.3767723,0.868469421 20.8916008,5.90307408 20.8916008,11.9999765 C20.8916008,18.0968789 16.3768189,23.1315306 10.5306589,23.898529 C10.5704934,23.9037435 10.6104212,23.9084412 10.6503957,23.9132329 C10.696434,23.9188232 10.7426122,23.9241317 10.788837,23.9292052 C10.8273655,23.9334332 10.865894,23.9377081 10.9044691,23.9415133 C10.9792404,23.9489357 11.0541517,23.9556064 11.1292963,23.9616195 C11.1617609,23.9642503 11.1943656,23.9665052 11.2269702,23.9688071 C11.2917129,23.9734578 11.3565956,23.9776388 11.4216649,23.9812091 C11.4437278,23.9824775 11.4657441,23.9839338 11.487807,23.9850142 C11.5733067,23.9892422 11.6590862,23.9924367 11.7450056,23.9948325 C11.7679081,23.9954902 11.7908106,23.9960539 11.8137598,23.9965707 C11.9038773,23.9985907 11.9941813,24 12.0848585,24 C18.6654385,24 24,18.6273467 24,11.9998826 C24,5.37241845 18.6653918,0 12.0848118,0 Z" id="Shape" fill="#378B4E"></path>
                <path d="M10.5306122,10.8497853 L15.4916878,7.98465348 C15.4916878,7.98465348 20.9185959,9.14795735 22.1711205,6.8478682 L22.5661424,6.12244898 L22.9096742,6.87396511 C23.6229484,8.43434499 24,10.1690635 24,11.8905227 C24,15.8585185 22.047004,19.5665291 18.7757007,21.8093644 L18.4381745,22.0408163 L10.5306122,10.8497853 Z" id="Shape" fill="#898790"></path>
                <path d="M23.755102,12.0956847 C23.755102,10.0212781 23.23745,8.06975791 22.326312,6.36734694 L21.9648154,7.03788831 C21.5279684,7.84828048 20.9529947,8.67690589 20.3799624,9.42235391 C20.57236,10.2820886 20.6746145,11.176739 20.6746145,12.0956847 C20.6746145,15.4480156 19.3225616,18.4789153 17.1428571,20.6566592 L18.2454681,22.2857143 C21.5580624,20.1595685 23.755102,16.3726005 23.755102,12.0956847 Z" id="Shape" fill="#7A797F"></path>
                <path d="M12.1027227,24 C7.97328939,24 4.16965892,21.9281595 1.92804073,18.4578114 L1.71428571,18.1269261 L8.43182152,12.4897959 L16.1632653,23.3057048 L15.6705947,23.4648023 C14.518008,23.8199401 13.3176369,24 12.1027227,24 Z" id="Shape" fill="#3D9AE3"></path>
                <path d="M16.1632653,23.2733528 L15.3534902,22.0408163 C13.9240269,23.0018418 12.2847431,23.6769904 10.5306122,23.919869 C11.0405971,23.9904559 11.5654522,24 12.0935806,24 C13.5173858,24 14.8970477,23.7591595 16.1632653,23.2733528 Z" id="Shape" fill="#1D81CE"></path>
                <path d="M8.32653061,12.5690838 L10.3990264,11.0204082 L18.3673469,22.0956305 L17.9800456,22.3220823 C17.4328694,22.6420524 16.8570025,22.9198649 16.2683997,23.1478505 L15.9652112,23.2653061 L8.32653061,12.5690838 Z" id="Shape" fill="#FFFFFF"></path>
                <path d="M15.9884164,23.2653061 C16.8292891,22.9721587 17.6265935,22.5887355 18.3673469,22.126038 L17.2300897,20.5714286 C16.6112166,21.1704906 15.9249813,21.7029097 15.1836735,22.1570505 L15.9884164,23.2653061 Z" id="Shape" fill="#E0E0E3"></path>
                <path d="M1.42018555,17.7513246 C1.09092307,17.150362 0.811261319,16.5174092 0.588997398,15.8700443 L0.489795918,15.4892331 L14.5664013,5.63265306 L16.6530612,7.20707293 L1.62413102,18.122449 L1.42018555,17.7513246 Z" id="Shape" fill="#FFCE00"></path>
                <path d="M17.8253367,11.6277315 C17.0979256,10.865146 13.4693878,6.94566145 13.4693878,4.67087054 C13.4693878,2.09532078 15.5567657,0 18.122449,0 C20.6881323,0 22.7755102,2.09532078 22.7755102,4.67087054 C22.7755102,6.94412792 19.1469261,10.8648207 18.4195149,11.6277315 C18.2576263,11.7975357 17.9872717,11.7975821 17.8253367,11.6277315 Z" id="Shape" fill="#CD2900"></path>
                <path d="M18.244898,6.36734694 C17.0970381,6.36734694 16.1632653,5.43352783 16.1632653,4.28571429 C16.1632653,3.13790075 17.0970844,2.20408163 18.244898,2.20408163 C19.3927578,2.20408163 20.3265306,3.13790075 20.3265306,4.28571429 C20.3265306,5.43352783 19.3927578,6.36734694 18.244898,6.36734694 Z" id="Shape" fill="#891D00"></path>
                <path d="M6.85716607,8.81632653 C8.20746923,8.81632653 9.30612245,7.71768849 9.30612245,6.36730052 C9.30612245,6.1537564 9.13301737,5.98059998 8.91943291,5.98059998 L7.37272117,5.98059998 C7.15918313,5.98059998 6.98603163,6.15370998 6.98603163,6.36730052 C6.98603163,6.58084463 7.15913671,6.75400105 7.37272117,6.75400105 L8.48766827,6.75400105 C8.31270635,7.49216734 7.64799956,8.04297188 6.85711965,8.04297188 C5.93324267,8.04297188 5.18154234,7.29125018 5.18154234,6.36734694 C5.18154234,5.44344369 5.93324267,4.69172199 6.85711965,4.69172199 C7.2656272,4.69172199 7.65904783,4.84036726 7.96496429,5.11022203 C8.12521066,5.25153253 8.36952603,5.23616664 8.51073967,5.07605497 C8.65199972,4.91589689 8.63668069,4.67152815 8.47657358,4.53026408 C8.02925781,4.13567169 7.45414416,3.91836735 6.85711965,3.91836735 C5.50681649,3.91836735 4.40816327,5.01700538 4.40816327,6.36739336 C4.40816327,7.71778134 5.50681649,8.81632653 6.85716607,8.81632653 Z" id="Shape" fill="#FFFFFF"></path>
            </g>
        </g>
    </g>
</svg>