<svg width="132" height="132" xmlns="http://www.w3.org/2000/svg">
    <g fill-rule="nonzero" fill="none">
        <path d="M66 132c36.352 0 66-29.648 66-66 0-36.352-29.648-66-66-66C29.65 0 0 29.648 0 66c0 36.352 29.649 66 66 66z" fill="#FFF"
        />
        <path fill="#F0B97D" d="M59.842 50.442h12.314l.998 10.38 1.771 1.42 3.737 2.38L66 94.532 53.336 64.621l3.737-2.378 1.772-1.421z"
        />
        <path d="M55.954 62.955l-18.053 5.762s-1.757.914-2.683 3.567c-5.378 5.762-22.603 24.593-22.603 29.373 0 5.665 14.702 19.31 14.702 19.31h6.979v4.89h63.407v-4.89h6.98s14.701-13.645 14.701-19.31c0-4.782-17.227-23.613-22.603-29.374-.928-2.652-2.683-3.566-2.683-3.566l-17.93-5.683-1.522 4.462-8.647-.42-8.521.414-1.524-4.535zm-21.658 33.01l2.237 8.925-.395 9.43-1.842-2.108-6.426-9.179 6.426-7.068zm63.407 16.247l-1.84 1.994-.397-10.953 2.237-7.289 6.427 7.07-6.427 9.178z"
            fill="#11BD8A" />
        <path fill="#F1F1F1" d="M55.78 63.01l-2.43.776L66 94.534l12.76-30.679-2.592-.821-6.35 3.924h-7.613z" />
        <path d="M55.954 62.955l-3.894 1.243-.748 9.88s.206.813.824.74l3.515 1.32s.23.231.024.522l-3.008 2.06 10.392 19.586a50.982 50.982 0 0 0 5.88 0L79.33 78.72l-3.008-2.061c-.206-.29.024-.521.024-.521l3.514-1.321c.619.073.825-.74.825-.74l-.746-9.848-3.774-1.197-10.168 29.82-10.044-29.898z"
            fill="#02EFA8" />
        <path d="M80.34 29.337c0 .964.353 1.909.327 2.834 3.3-.613 1.706 9.19-.16 10.537-.149.107-.514-.132-.822-.329-.647 3.606-6.175 13.239-9.689 17.294-.976 1.126-6.944 1.107-7.91.043-3.6-3.963-9.12-13.71-9.77-17.337-.31.197-.674.436-.822.329-1.867-1.348-3.461-11.15-.161-10.537-.026-.925.325-1.87.325-2.834.183-7.611 7.08-11.411 14.342-11.444 7.262.033 14.159 3.833 14.34 11.444z"
            fill="#FED198" />
        <path d="M75.92 19.58c1.04-.121 4.799 1.03 5.25 5.008.451 3.977.235 7.641.235 7.641s-2.202.557-2.48 2.814c-.276 2.258-.079 2.258-.079 2.258l-.797-.18-.568-3.87c-3.295-2.064.024-5.122-3.271-5.839-8.9 6.344-16.753 5.259-20.294 2.274 0 0 .826 3.121.189 4.234-.638 1.113-.257 2.867-.257 2.867l-.828-.04s.15-4.597-1.688-4.577C44.35 20.643 66.455 6.322 75.92 19.58z"
            fill="#666" />
        <g fill="#FFF">
            <path d="M58.76 59.34c.258.017-3.014 3.68-3.014 3.68l2.785 9.468 7.468-5.531c-4.108-2-6.56-4.592-7.24-7.618zM73.24 59.34c-.258.017 3.013 3.68 3.013 3.68l-2.785 9.468-7.469-5.531c4.109-2 6.56-4.592 7.241-7.618z"
            />
        </g>
        <path d="M33.652 115.461c4.21 0 7.623 2.119 7.623 4.732s-3.413 4.732-7.623 4.732c-4.21 0-7.624-2.12-7.624-4.732 0-2.613 3.413-4.732 7.624-4.732zm0 1.25c-3.277 0-5.933 1.56-5.933 3.482 0 1.923 2.656 3.483 5.933 3.483 3.277 0 5.933-1.56 5.933-3.483 0-1.922-2.656-3.482-5.933-3.482z"
            fill="#ECF0F1" />
        <path d="M33.652 123.676c3.267 0 5.933-1.564 5.933-3.482 0-1.918-2.666-3.483-5.933-3.483-3.268 0-5.933 1.565-5.933 3.483 0 1.917 2.665 3.482 5.933 3.482z"
            fill="#377BB9" />
        <path d="M31.238 122.183v3.813c0 .473-.387.86-.86.86H28.86a.862.862 0 0 1-.86-.86v-5.901c0-.09.014-.177.04-.26v-1.298c0-1.105.904-2.008 2.008-2.008h12.414c1.104 0 2.007.903 2.007 2.008v1.297c.027.082.04.17.04.261v5.901c0 .473-.386.86-.86.86h-1.515a.862.862 0 0 1-.86-.86v-3.813h-1.189v3.813c0 .473-.386.86-.86.86H37.71a.862.862 0 0 1-.86-.86v-3.813h-1.188v3.813c0 .473-.387.86-.86.86h-1.516a.862.862 0 0 1-.86-.86v-3.813h-1.188z"
            fill="#FBB429" />
        <path d="M98.349 115.461c-4.21 0-7.623 2.119-7.623 4.732s3.413 4.732 7.623 4.732c4.21 0 7.624-2.12 7.624-4.732 0-2.613-3.414-4.732-7.624-4.732zm0 1.25c3.277 0 5.933 1.56 5.933 3.482 0 1.923-2.656 3.483-5.933 3.483-3.277 0-5.932-1.56-5.932-3.483 0-1.922 2.655-3.482 5.932-3.482z"
            fill="#ECF0F1" />
        <path d="M98.35 123.676c3.267 0 5.932-1.564 5.932-3.482 0-1.918-2.665-3.483-5.932-3.483-3.268 0-5.933 1.565-5.933 3.483 0 1.917 2.665 3.482 5.933 3.482z"
            fill="#333" />
        <path d="M100.763 122.183v3.813c0 .473.387.86.86.86h1.517c.473 0 .86-.387.86-.86v-5.901a.854.854 0 0 0-.04-.26v-1.298a2.013 2.013 0 0 0-2.008-2.008H89.538a2.013 2.013 0 0 0-2.007 2.008v1.297a.833.833 0 0 0-.041.261v5.901c0 .473.386.86.86.86h1.516c.473 0 .86-.387.86-.86v-3.813h1.188v3.813c0 .473.387.86.86.86h1.517c.473 0 .86-.387.86-.86v-3.813h1.188v3.813c0 .473.387.86.86.86h1.516c.473 0 .86-.387.86-.86v-3.813h1.188z"
            fill="#FBB429" />
        <path d="M31.994 78.684h68.012a3.96 3.96 0 0 1 3.949 3.949v37.59a3.96 3.96 0 0 1-3.949 3.948H31.994a3.961 3.961 0 0 1-3.95-3.949v-37.59a3.96 3.96 0 0 1 3.95-3.948z"
            fill="#6E6E6E" />
        <g fill="#FFF">
            <path d="M71.47 103.491c-.271.602-.401.871-.751 1.403-.488.742-1.176 1.668-2.028 1.676-.758.007-.953-.493-1.98-.487-1.028.005-1.243.495-2 .488-.853-.007-1.505-.843-1.993-1.586-1.364-2.077-1.507-4.515-.666-5.81.598-.922 1.542-1.46 2.43-1.46.903 0 1.47.495 2.218.495.724 0 1.166-.496 2.21-.496.79 0 1.627.43 2.223 1.172-1.953 1.071-1.635 3.86.337 4.605zM68.546 96.12c.429-.55.754-1.326.636-2.12-.7.048-1.52.493-1.998 1.074-.433.527-.792 1.31-.653 2.069.765.023 1.555-.433 2.015-1.022z"
            />
        </g>
        <path d="M29.543 126.108h72.914c.824 0 1.498.675 1.498 1.5v2.89c0 .826-.674 1.5-1.498 1.5H29.543a1.503 1.503 0 0 1-1.499-1.5v-2.89c0-.825.675-1.5 1.5-1.5z"
            fill="#A6A6A6" />
        <path d="M39.194 123.267h6.445v4.394h-6.445v-4.394zm47.168 0h6.445v4.394h-6.445v-4.394z" fill="#ECF0F1" />
    </g>
</svg>
