<?xml version="1.0" encoding="iso-8859-1"?>
<!-- Generator: Adobe Illustrator 19.0.0, SVG Export Plug-In . SVG Version: 6.00 Build 0)  -->
<svg version="1.1" id="Layer_1" xmlns="http://www.w3.org/2000/svg" xmlns:xlink="http://www.w3.org/1999/xlink" x="0px" y="0px"
	 viewBox="0 0 512 512" style="enable-background:new 0 0 512 512;" xml:space="preserve">
<circle style="fill:#FF4F19;" cx="255.996" cy="255.996" r="255.996"/>
<path style="fill:#ED2400;" d="M512,256.001c0-31.562-5.726-61.782-16.172-89.699l-47.443-47.442H63.615v274.282l102.687,102.687
	C194.218,506.274,224.439,512,256.001,512C397.385,512,512,397.385,512,256.001z"/>
<rect x="63.615" y="118.855" style="fill:#FFEC97;" width="384.768" height="274.282"/>
<rect x="255.996" y="118.855" style="fill:#FFD400;" width="192.384" height="274.282"/>
<rect x="63.615" y="118.855" style="fill:#00D9E0;" width="384.768" height="33.252"/>
<rect x="255.996" y="118.855" style="fill:#00B7BE;" width="192.384" height="33.252"/>
<rect x="80.174" y="169.658" style="fill:#F5F5F5;" width="351.645" height="202.101"/>
<rect x="255.996" y="169.658" style="fill:#E1E1E3;" width="175.822" height="202.101"/>
<g>
	<circle style="fill:#394CE2;" cx="371.205" cy="135.48" r="9.13"/>
	<circle style="fill:#394CE2;" cx="396.753" cy="135.48" r="9.13"/>
	<circle style="fill:#394CE2;" cx="422.289" cy="135.48" r="9.13"/>
	<rect x="281.544" y="213.835" style="fill:#394CE2;" width="124.341" height="19.989"/>
	<rect x="281.544" y="260.719" style="fill:#394CE2;" width="124.341" height="19.989"/>
	<rect x="281.544" y="307.603" style="fill:#394CE2;" width="124.341" height="19.989"/>
</g>
<rect x="100.162" y="242.35" style="fill:#00F7FD;" width="139.732" height="105.376"/>
<rect x="170.023" y="242.35" style="fill:#00D9E0;" width="69.868" height="105.376"/>
<polygon style="fill:#FF4F19;" points="136.23,260.357 136.23,347.733 203.825,347.733 203.825,260.357 170.059,242.678 
	170.031,242.678 170.059,242.678 "/>
<polygon style="fill:#ED2400;" points="170.031,242.765 170.031,347.733 203.825,347.733 203.825,260.357 169.798,242.765 "/>
<polygon style="fill:#FFB74F;" points="136.232,260.357 170.031,193.694 203.828,260.357 "/>
<polygon style="fill:#FF9A00;" points="203.828,260.357 170.031,260.357 170.031,193.694 "/>
<polygon style="fill:#29292B;" points="185.487,224.18 154.574,224.18 170.031,193.694 "/>
<polygon style="fill:#171719;" points="170.031,193.694 185.487,224.18 170.031,224.18 "/>
<rect x="154.58" y="260.353" style="fill:#FF8800;" width="30.908" height="87.373"/>
<rect x="170.034" y="260.353" style="fill:#E67500;" width="15.454" height="87.373"/>
<g>
</g>
<g>
</g>
<g>
</g>
<g>
</g>
<g>
</g>
<g>
</g>
<g>
</g>
<g>
</g>
<g>
</g>
<g>
</g>
<g>
</g>
<g>
</g>
<g>
</g>
<g>
</g>
<g>
</g>
</svg>
