<?xml version="1.0" encoding="UTF-8" standalone="no"?>
<svg width="48px" height="48px" viewBox="0 0 48 48" version="1.1" xmlns="http://www.w3.org/2000/svg" xmlns:xlink="http://www.w3.org/1999/xlink">
    <!-- Generator: Sketch 48.2 (47327) - http://www.bohemiancoding.com/sketch -->
    <title>twitter-1</title>
    <desc>Created with Sketch.</desc>
    <defs></defs>
    <g id="Purchase-Ticket---Complete" stroke="none" stroke-width="1" fill="none" fill-rule="evenodd" transform="translate(-164.000000, -652.000000)">
        <g id="twitter-1" transform="translate(164.000000, 652.000000)" fill-rule="nonzero">
            <circle id="Oval" fill="#55ACEE" cx="23.8296637" cy="23.8292389" r="23.8292389"></circle>
            <path d="M38.4259115,17.1253805 C37.4047434,17.5781947 36.3062655,17.8844602 35.1542655,18.0212389 C36.3304779,17.316531 37.2331327,16.2014867 37.6591858,14.8706549 C36.5585841,15.5235398 35.3390442,15.9971681 34.0421947,16.2524602 C33.0031858,15.1459115 31.5228319,14.4543717 29.8836106,14.4543717 C26.7385487,14.4543717 24.1877522,17.0051681 24.1877522,20.1502301 C24.1877522,20.5966726 24.2383009,21.0312212 24.336,21.448354 C19.6022655,21.2109027 15.4050265,18.9434336 12.5955398,15.496354 C12.1053451,16.3374159 11.8241416,17.316531 11.8241416,18.3602124 C11.8241416,20.3358584 12.8304425,22.08 14.3579469,23.1011681 C13.424708,23.0718584 12.5458407,22.8157168 11.7782655,22.3879646 C11.7778407,22.412177 11.7778407,22.4363894 11.7778407,22.460177 C11.7778407,25.2199646 13.7420177,27.5218407 16.3471858,28.0447434 C15.8697345,28.1755752 15.3655221,28.2448142 14.8468673,28.2448142 C14.4790088,28.2448142 14.1226195,28.2095575 13.7751504,28.143292 C14.499823,30.4056637 16.6029027,32.052531 19.0959292,32.0988319 C17.1461947,33.6267611 14.6905487,34.5370619 12.0212389,34.5370619 C11.5624779,34.5370619 11.1079646,34.5103009 10.6632212,34.4572035 C13.1825841,36.0739115 16.1772743,37.0164956 19.3936991,37.0164956 C29.8704425,37.0164956 35.5998584,28.3374159 35.5998584,20.8099115 C35.5998584,20.563115 35.5943363,20.3171681 35.583292,20.0733451 C36.6970619,19.2705133 37.6625841,18.2676106 38.4259115,17.1253805 Z" id="Shape" fill="#FFFFFF"></path>
        </g>
    </g>
</svg>