<?xml version="1.0" encoding="UTF-8" standalone="no"?>
<svg width="132px" height="132px" viewBox="0 0 132 132" version="1.1" xmlns="http://www.w3.org/2000/svg" xmlns:xlink="http://www.w3.org/1999/xlink">
    <!-- Generator: Sketch 48.2 (47327) - http://www.bohemiancoding.com/sketch -->
    <title>sponsor-inquiry</title>
    <desc>Created with Sketch.</desc>
    <defs></defs>
    <g id="Home-Page" stroke="none" stroke-width="1" fill="none" fill-rule="evenodd" transform="translate(-906.000000, -3922.000000)">
        <g id="Group-12" transform="translate(206.000000, 3922.000000)" fill-rule="nonzero">
            <g id="Group-3" transform="translate(576.000000, 0.000000)">
                <g id="sponsor-inquiry" transform="translate(124.000000, 0.000000)">
                    <circle id="Oval" fill="#324A5E" cx="66" cy="66" r="66"></circle>
                    <g id="Group" transform="translate(31.968750, 31.195312)" fill="#2B3B4E">
                        <path d="M47.029125,99.5220703 C71.5112578,94.6318828 91.1029453,76.1990625 97.6655625,52.3642969 L67.8374297,22.5361641 L63.4205859,26.27625 L37.3516172,0.20728125 L30.1297734,37.2735 L0.0177890625,28.6837031 L24.8105859,53.4765 L11.8722656,64.3654687 L47.029125,99.5220703 Z" id="Shape"></path>
                    </g>
                    <path d="M70.6223203,33.2075391 L76.7760469,47.4630234 C77.5048828,49.1519531 79.0973906,50.3087578 80.9288906,50.4804609 L96.3883594,51.9280781 C100.782516,52.3395469 102.55807,57.8041406 99.2449219,60.72 L87.5884453,70.9778438 C86.2076016,72.1929141 85.5991641,74.0648906 86.002125,75.8595234 L89.4029297,91.0096172 C90.3697266,95.316375 85.7211094,98.6932031 81.9243047,96.4432734 L68.5665234,88.5273984 C66.9838125,87.5897344 65.0159297,87.5897344 63.4332187,88.5273984 L50.0754375,96.4432734 C46.2786328,98.6934609 41.6300156,95.3161172 42.5968125,91.0096172 L45.9976172,75.8595234 C46.4008359,74.064375 45.7923984,72.1929141 44.4112969,70.9778438 L32.7550781,60.72 C29.4416719,57.8038828 31.2172266,52.3395469 35.6116406,51.9280781 L51.0711094,50.4804609 C52.9026094,50.3090156 54.4946016,49.1519531 55.2239531,47.4630234 L61.3776797,33.2075391 C63.1271953,29.1549844 68.8728047,29.1549844 70.6223203,33.2075391 Z" id="Shape" fill="#F9B54C"></path>
                    <path d="M96.3883594,51.9275625 L80.9288906,50.4799453 C79.0973906,50.3085 77.5048828,49.1514375 76.7760469,47.4625078 L70.6223203,33.2072812 C69.7591641,31.2082031 67.9232812,30.1996406 66.07425,30.1730859 L66.07425,87.8289844 C66.9368906,87.841875 67.7974687,88.0715859 68.5667812,88.5276563 L81.9245625,96.4435312 C85.7213672,98.6937188 90.3699844,95.316375 89.4031875,91.009875 L86.0023828,75.8597812 C85.5991641,74.0646328 86.2076016,72.1931719 87.5887031,70.9781016 L99.2451797,60.7202578 C102.558328,57.803625 100.782773,52.3390312 96.3883594,51.9275625 Z" id="Shape" fill="#F4A200"></path>
                    <path d="M69.2025469,42.5622656 L73.4659922,52.4390625 C73.9713047,53.6092734 75.0744844,54.4105547 76.3434375,54.5296641 L87.0545156,55.5322969 C90.0990234,55.8171797 91.3293047,59.6034141 89.0337422,61.6238906 L80.9577656,68.7310078 C80.0007656,69.5732812 79.5795,70.8695625 79.8587109,72.1137656 L82.2146016,82.6106016 C82.8843984,85.5942656 79.6635469,87.9341719 77.0328281,86.3754375 L67.7776172,80.8909922 C66.6811406,80.2413047 65.3175703,80.2413047 64.2210938,80.8909922 L54.9658828,86.3754375 C52.3351641,87.9344297 49.1143125,85.5945234 49.7841094,82.6106016 L52.14,72.1137656 C52.4192109,70.8700781 51.9976875,69.5732812 51.0409453,68.7310078 L42.9649688,61.6238906 C40.6694063,59.6034141 41.8996875,55.8176953 44.9441953,55.5322969 L55.6552734,54.5296641 C56.9242266,54.4110703 58.0274063,53.6092734 58.5327188,52.4390625 L62.7961641,42.5622656 C64.0094297,39.7546875 67.9905703,39.7546875 69.2025469,42.5622656 Z" id="Shape" fill="#FFD15D"></path>
                    <path d="M89.0337422,61.6238906 C91.3293047,59.6039297 90.0990234,55.8176953 87.0545156,55.5322969 L76.3434375,54.5296641 C75.0744844,54.4110703 73.9713047,53.6092734 73.4659922,52.4393203 L69.2025469,42.5625234 C68.6082891,41.1855469 67.3473281,40.4884219 66.0739922,40.4616094 L66.0739922,80.4083672 C66.664125,80.4207422 67.2516797,80.5790391 67.777875,80.8904766 L77.0330859,86.3749219 C79.6638047,87.9339141 82.8846563,85.5940078 82.2148594,82.6100859 L79.8589688,72.11325 C79.5797578,70.8698203 80.0012813,69.5727656 80.9580234,68.7304922 L89.0337422,61.6238906 Z" id="Shape" fill="#F9B54C"></path>
                </g>
            </g>
        </g>
    </g>
</svg>