<?xml version="1.0" encoding="UTF-8" standalone="no"?>
<svg width="48px" height="48px" viewBox="0 0 48 48" version="1.1" xmlns="http://www.w3.org/2000/svg" xmlns:xlink="http://www.w3.org/1999/xlink">
    <!-- Generator: Sketch 48.2 (47327) - http://www.bohemiancoding.com/sketch -->
    <title>facebook-2</title>
    <desc>Created with Sketch.</desc>
    <defs></defs>
    <g id="Purchase-Ticket---Complete" stroke="none" stroke-width="1" fill="none" fill-rule="evenodd" transform="translate(-316.000000, -652.000000)">
        <g id="facebook-2" transform="translate(316.000000, 652.000000)" fill-rule="nonzero">
            <path d="M23.9439452,0 C37.1686027,0 47.8880548,10.7209315 47.8880548,23.9441096 C47.8880548,37.1687671 37.1686027,47.8880548 23.9439452,47.8880548 C10.7192877,47.8880548 0,37.1686027 0,23.9441096 C0,10.7209315 10.7194521,0 23.9439452,0 Z" id="Shape" fill="#3B5998"></path>
            <path d="M26.8592877,16.4838904 L29.9450959,16.4838904 L29.9450959,11.9255342 L26.3176438,11.9255342 L26.3176438,11.9419726 C21.9223562,12.0976438 21.0215342,14.5683288 20.942137,17.1632877 L20.9330959,17.1632877 L20.9330959,19.4395068 L17.9401644,19.4395068 L17.9401644,23.9035068 L20.9330959,23.9035068 L20.9330959,35.8694795 L25.4436164,35.8694795 L25.4436164,23.9035068 L29.1384658,23.9035068 L29.8522192,19.4395068 L25.4450959,19.4395068 L25.4450959,18.064274 C25.4450959,17.1872877 26.0286575,16.4838904 26.8592877,16.4838904 Z" id="Shape" fill="#FFFFFF"></path>
        </g>
    </g>
</svg>