<?xml version="1.0" encoding="UTF-8" standalone="no"?>
<svg width="48px" height="48px" viewBox="0 0 48 48" version="1.1" xmlns="http://www.w3.org/2000/svg" xmlns:xlink="http://www.w3.org/1999/xlink">
    <!-- Generator: Sketch 48.2 (47327) - http://www.bohemiancoding.com/sketch -->
    <title>linkedin-2</title>
    <desc>Created with Sketch.</desc>
    <defs></defs>
    <g id="Purchase-Ticket---Complete" stroke="none" stroke-width="1" fill="none" fill-rule="evenodd" transform="translate(-478.000000, -652.000000)">
        <g id="linkedin-2" transform="translate(478.000000, 652.000000)" fill-rule="nonzero">
            <ellipse id="Oval" fill="#007AB9" cx="23.8292389" cy="24.0408421" rx="23.8292389" ry="23.6202105"></ellipse>
            <path d="M38.0669735,25.9414737 L38.0669735,35.6795789 L32.371115,35.6795789 L32.371115,26.5941053 C32.371115,24.3128421 31.5487434,22.7549474 29.4864425,22.7549474 C27.9126372,22.7549474 26.9776991,23.8037895 26.5648142,24.8193684 C26.4148673,25.1823158 26.3762124,25.6863158 26.3762124,26.1953684 L26.3762124,35.6791579 L20.6799292,35.6791579 C20.6799292,35.6791579 20.7563894,20.2913684 20.6799292,18.6985263 L26.3766372,18.6985263 L26.3766372,21.1048421 C26.3651681,21.1237895 26.3490265,21.1423158 26.3388319,21.1604211 L26.3766372,21.1604211 L26.3766372,21.1048421 C27.1335929,19.9503158 28.4835398,18.2997895 31.5100885,18.2997895 C35.2574867,18.2997895 38.0669735,20.7267368 38.0669735,25.9414737 Z M14.7211327,10.5132632 C12.7726726,10.5132632 11.4979115,11.7810526 11.4979115,13.4467368 C11.4979115,15.0770526 12.7357168,16.3814737 14.6463717,16.3814737 L14.6833274,16.3814737 C16.6700177,16.3814737 17.9052743,15.0770526 17.9052743,13.4467368 C17.867469,11.7810526 16.6700177,10.5132632 14.7211327,10.5132632 Z M11.8364602,35.6795789 L17.5306195,35.6795789 L17.5306195,18.6985263 L11.8364602,18.6985263 L11.8364602,35.6795789 Z" id="Shape" fill="#FFFFFF"></path>
        </g>
    </g>
</svg>