<?xml version="1.0" encoding="UTF-8" standalone="no"?>
<svg width="512px" height="742px" viewBox="0 0 512 742" version="1.1" xmlns="http://www.w3.org/2000/svg" xmlns:xlink="http://www.w3.org/1999/xlink">
    <!-- Generator: Sketch 48.2 (47327) - http://www.bohemiancoding.com/sketch -->
    <title>pythonista-party</title>
    <desc>Created with Sketch.</desc>
    <defs></defs>
    <g id="Purchase-Ticket---Complete" stroke="none" stroke-width="1" fill="none" fill-rule="evenodd" transform="translate(-808.000000, -99.000000)">
        <g id="pythonista-party" transform="translate(808.000000, 99.000000)" fill-rule="nonzero">
            <g id="flaticon1515207654-svg" transform="translate(48.000000, 0.000000)">
                <circle id="Oval" fill="#6EDCF9" cx="276.06" cy="163.74" r="14.723"></circle>
                <circle id="Oval" fill="#8DD83D" cx="16.858" cy="330.19" r="12.409"></circle>
                <path d="M235.371,35.882 L203.729,31.285 L189.579,2.613 C188.789,1.013 187.159,-7.10542736e-15 185.376,-7.10542736e-15 C183.593,-7.10542736e-15 181.963,1.012 181.173,2.613 L167.023,31.285 L135.38,35.882 C131.546,36.439 130.006,41.169 132.783,43.876 L155.679,66.195 L150.273,97.71 C149.619,101.529 153.642,104.458 157.073,102.65 L185.375,87.772 C216.205,103.979 214.267,103.19 215.857,103.19 C216.829,103.19 217.796,102.888 218.613,102.294 C220.055,101.245 220.779,99.469 220.478,97.711 L215.072,66.196 L237.967,43.877 C240.743,41.174 239.211,36.441 235.371,35.882 Z" id="Shape" fill="#FFA92C"></path>
                <path d="M182.989,74.463 L160.093,52.144 C157.319,49.44 158.852,44.708 162.69,44.15 L194.333,39.553 L201.071,25.9 L189.578,2.613 C188.788,1.013 187.158,0 185.375,0 C183.592,0 181.962,1.012 181.172,2.613 L167.022,31.285 L135.379,35.882 C131.545,36.439 130.005,41.169 132.782,43.876 L155.678,66.195 L150.272,97.71 C149.618,101.529 153.641,104.458 157.072,102.65 L180.242,90.47 L182.989,74.463 Z" id="Shape" fill="#FF8828"></path>
                <path d="M414.783,186.955 L395.739,168.06 L400.508,141.661 C401.085,138.461 397.734,135.977 394.839,137.465 L370.985,149.737 L347.352,137.044 C344.488,135.508 341.089,137.926 341.61,141.139 L345.911,167.618 L326.535,186.172 C324.187,188.422 325.44,192.404 328.656,192.898 L355.169,196.991 L366.829,221.151 C367.11,221.736 367.525,222.23 368.029,222.602 C369.988,224.053 372.784,223.386 373.882,221.213 L385.966,197.264 L412.547,193.64 C415.767,193.205 417.092,189.247 414.783,186.955 Z" id="Shape" fill="#FFA92C"></path>
                <path d="M359.823,186.428 L355.522,159.949 C355.002,156.74 358.395,154.316 361.264,155.854 L384.897,168.547 L396.752,162.448 L400.507,141.663 C401.084,138.463 397.733,135.979 394.838,137.467 L370.984,149.739 L347.351,137.046 C344.487,135.51 341.088,137.928 341.609,141.141 L345.91,167.62 L326.534,186.174 C324.186,188.424 325.439,192.406 328.655,192.9 L349.676,196.146 L359.823,186.428 Z" id="Shape" fill="#FF8828"></path>
                <path d="M142.979,471.648 C142.979,471.648 127.419,342.154 82.656,269.427 C76.614,260.265 67.073,255.609 54.701,262.167 L54.69,262.173 C41.395,269.227 48.687,283.366 48.687,283.366 L48.686,283.367 C69.213,308.865 114.831,373.247 142.979,471.648 Z" id="Shape" fill="#E8C018"></path>
                <path d="M391.159,378.272 L391.161,378.271 C392.728,377.317 394.241,376.41 395.702,375.548 C401.276,371.541 409.094,363.224 401.374,351.307 C392.322,337.334 376.634,346.967 374.157,348.616 C292.899,407.026 247.899,512 247.899,512 C299.018,441.218 357.167,398.975 391.159,378.272 Z" id="Shape" fill="#F2D422"></path>
                <path d="M27.167,385.301 C24.375,383.287 9.972,373.784 2.393,386.003 C-2.285,393.547 0.287,400.25 7.992,404.881 C7.993,404.882 8,404.886 8,404.886 C34.829,421.053 81.898,454.809 123.203,512 C123.203,512 89.028,432.277 27.167,385.301 Z" id="Shape" fill="#E8C018"></path>
                <path d="M101.305,196.146 C101.922,194.305 101.451,194.451 89.393,182.488 C92.445,165.594 92.869,165.615 91.321,164.468 C89.762,163.314 89.762,163.803 74.65,171.577 C59.533,163.459 59.677,163.056 58.107,164.175 C56.528,165.306 56.994,165.457 59.716,182.226 L48.178,193.276 C46.779,194.614 47.524,196.986 49.441,197.282 L65.23,199.72 C72.687,215.173 72.328,215.413 74.261,215.432 C76.203,215.447 75.915,215.053 83.57,199.882 L99.399,197.725 C100.283,197.603 101.022,196.992 101.305,196.146 Z" id="Shape" fill="#EA473B"></path>
                <path d="M80.948,195.338 C63.99,192.72 63.861,193.129 63.282,191.29 C62.7,189.438 63.161,189.599 75.434,177.845 L74.393,171.437 C59.581,163.483 59.677,163.054 58.108,164.173 C56.529,165.304 56.995,165.455 59.717,182.224 C47.325,194.092 46.987,193.83 47.565,195.669 C48.148,197.52 48.437,197.124 65.231,199.717 C72.46,214.698 72.133,214.41 72.888,214.971 C74.058,215.834 75.722,215.435 76.373,214.144 L83.35,200.317 L80.948,195.338 Z" id="Shape" fill="#D63322"></path>
                <path d="M205.727,142.301 L205.715,142.295 C187.63,132.788 184.1,132.274 165.031,142.298 L165.027,142.3 C148.622,150.924 148.906,163.088 149.306,166.328 C158.775,224.904 176.625,343.956 185.374,458.563 C194.095,344.34 211.855,225.702 221.349,166.92 C222.421,160.224 223.61,151.703 205.727,142.301 Z" id="Shape" fill="#F2D422"></path>
                <path d="M169.507,166.328 C169.106,163.088 168.823,150.924 185.228,142.3 L185.232,142.298 C189.275,140.173 192.615,138.526 195.548,137.334 C185.317,133.076 179.892,134.486 165.031,142.298 L165.027,142.3 C148.622,150.924 148.906,163.088 149.306,166.328 C158.775,224.904 176.625,343.956 185.374,458.563 C188.054,423.456 191.589,387.934 195.475,353.86 C186.676,276.696 176.075,206.96 169.507,166.328 Z" id="Shape" fill="#E8C018"></path>
                <path d="M338.256,253.408 C342.454,247.798 341.362,243.217 340.614,241.366 L335.869,231.533 C333.625,226.887 329.776,225.592 328.075,225.238 L327.221,225.106 L327.22,225.106 C327.22,225.106 327.22,225.106 318.341,223.735 C309.951,222.44 305.361,229.652 304.879,230.452 C251.828,323.479 223.889,475.308 223.889,475.308 C260.255,366.431 308.943,291.919 338.246,253.422 C338.25,253.418 338.252,253.413 338.256,253.408 Z" id="Shape" fill="#F2D422"></path>
            </g>
            <g id="flaticon1515207794-svg" transform="translate(0.000000, 394.000000)">
                <path d="M373.263,280.276 C373.263,280.276 483.419,234.775 502.67,166.523 C502.67,166.523 517.453,255.144 419.663,325.778" id="Shape" fill="#00723E"></path>
                <path d="M397.133,338.902 L34.437,338.902 C20.13,338.902 8.532,327.304 8.532,312.997 C8.532,298.69 20.13,287.092 34.437,287.092 L397.134,287.092 C411.441,287.092 423.039,298.69 423.039,312.997 C423.038,327.304 411.44,338.902 397.133,338.902 Z" id="Shape" fill="#00A35C"></path>
                <path d="M397.133,316.152 L34.437,316.152 C24.212,316.152 15.373,310.225 11.161,301.622 C9.48,305.056 8.532,308.916 8.532,312.997 C8.532,327.304 20.13,338.902 34.437,338.902 L397.134,338.902 C411.441,338.902 423.039,327.304 423.039,312.997 C423.039,308.916 422.093,305.056 420.41,301.622 C416.197,310.226 407.358,316.152 397.133,316.152 Z" id="Shape" fill="#00723E"></path>
                <path d="M350.071,287.092 L73.069,287.092 C58.762,287.092 47.164,275.494 47.164,261.187 C47.164,246.88 58.762,235.282 73.069,235.282 L350.071,235.282 C364.378,235.282 375.976,246.88 375.976,261.187 C375.976,275.495 364.378,287.092 350.071,287.092 Z" id="Shape" fill="#00A35C"></path>
                <path d="M350.071,264.342 L73.069,264.342 C62.844,264.342 54.005,258.417 49.793,249.812 C48.112,253.246 47.164,257.106 47.164,261.187 C47.164,275.494 58.762,287.091 73.069,287.091 L350.071,287.091 C364.378,287.091 375.976,275.494 375.976,261.187 C375.976,257.106 375.028,253.246 373.347,249.812 C369.135,258.416 360.296,264.342 350.071,264.342 Z" id="Shape" fill="#00723E"></path>
                <path d="M300.54,62.604 C300.54,62.604 269.568,87.55 232.996,87.55 C196.424,87.55 161.681,58.041 166.037,42.97 C170.394,27.899 208.721,9.099 261.86,9.099 C314.999,9.099 365.718,18.52 365.718,95.513 C365.718,119.207 364.522,139.418 361.574,156.705 C353.822,202.166 314.197,235.283 268.079,235.283 L123.675,235.283 C109.134,235.283 97.347,223.496 97.347,208.955 C97.347,194.414 109.134,182.627 123.675,182.627 L270.172,182.627 C270.172,182.627 348.259,158.044 300.54,62.604 Z" id="Shape" fill="#00A35C"></path>
                <g id="Group" transform="translate(97.000000, 9.000000)" fill="#00723E">
                    <path d="M135.994,78.55 C172.567,78.55 203.538,53.604 203.538,53.604 C211.988,70.502 216.477,85.169 218.171,97.882 C220.724,80.888 217.583,58.942 203.538,30.853 C203.538,30.853 172.566,55.799 135.994,55.799 C109.712,55.799 84.375,40.561 73.814,26.39 C71.377,28.951 69.746,31.509 69.035,33.968 C64.68,49.041 99.422,78.55 135.994,78.55 Z" id="Shape"></path>
                    <path d="M264.574,124.956 C256.822,170.418 217.197,203.533 171.079,203.533 L26.674,203.533 C16.208,203.533 7.169,197.426 2.925,188.58 C1.273,192.023 0.346,195.881 0.346,199.955 C0.346,214.496 12.133,226.283 26.674,226.283 L171.079,226.283 C217.197,226.283 256.822,193.167 264.574,147.706 C267.521,130.419 268.718,110.206 268.718,86.514 C268.718,83.876 268.653,81.326 268.536,78.844 C268.105,96.169 266.876,111.459 264.574,124.956 Z" id="Shape"></path>
                    <path d="M164.86,0.099 C161.509,0.099 158.218,0.174 154.99,0.319 C203.158,2.079 245.969,15.777 245.969,86.513 C245.969,110.207 244.773,130.418 241.825,147.705 C234.073,193.166 194.448,226.282 148.33,226.282 L171.081,226.282 C217.199,226.282 256.824,193.166 264.576,147.705 C267.523,130.418 268.72,110.205 268.72,86.513 C268.718,9.52 218,0.099 164.86,0.099 Z" id="Shape"></path>
                </g>
                <path d="M225.184,31.53 C219.734,31.53 215.301,35.956 215.301,41.395 C215.301,46.834 219.734,51.26 225.184,51.26 C230.633,51.26 235.066,46.834 235.066,41.395 C235.065,35.956 230.632,31.53 225.184,31.53 Z" id="Shape" fill="#000000"></path>
                <path d="M511.085,165.119 C510.429,161.18 507.125,158.222 503.138,158.004 C499.168,157.784 495.544,160.363 494.459,164.207 C480.559,213.491 413.793,251.223 384.189,265.815 C384.394,264.3 384.509,262.757 384.509,261.188 C384.509,242.2 369.06,226.753 350.072,226.753 L325.196,226.753 C348.323,211.515 365.037,187.161 369.985,158.14 C372.895,141.078 374.25,121.178 374.25,95.513 C374.25,57.167 362.463,31.217 338.212,16.183 C316.018,2.422 287.162,0.567 261.861,0.567 C210.885,0.567 164.223,18.526 157.842,40.6 C156.683,44.61 156.494,50.788 161.011,58.713 L124.409,58.713 L114.434,49.87 C110.907,46.743 105.516,47.068 102.391,50.593 C99.265,54.119 99.589,59.511 103.114,62.636 L108.623,67.521 L102.838,73.124 C99.454,76.402 99.367,81.803 102.646,85.188 C104.319,86.916 106.545,87.784 108.775,87.784 C110.912,87.784 113.053,86.985 114.71,85.38 L124.627,75.775 L176.454,75.775 C190.713,87.055 211.435,96.08 232.998,96.08 C260.521,96.08 284.718,83.346 297.124,75.411 C308.539,101.613 310.526,123.914 303.02,141.806 C294.048,163.187 273.607,172.194 268.689,174.094 L123.675,174.094 C104.453,174.094 88.815,189.732 88.815,208.954 C88.815,215.453 90.608,221.537 93.715,226.751 L73.069,226.751 C54.081,226.751 38.632,242.199 38.632,261.186 C38.632,267.52 40.359,273.455 43.354,278.56 L34.436,278.56 C15.449,278.562 0,294.01 0,312.997 C0,331.985 15.449,347.434 34.437,347.434 L397.135,347.434 C409.245,347.434 419.907,341.145 426.048,331.668 C477.538,293.976 497.994,251.252 506.065,221.927 C514.987,189.502 511.249,166.1 511.085,165.119 Z M397.134,330.371 L34.437,330.371 C24.858,330.371 17.063,322.577 17.063,312.997 C17.063,303.417 24.857,295.625 34.437,295.625 L73.07,295.625 L286.518,295.625 L286.519,295.625 C291.232,295.625 295.05,291.805 295.05,287.094 C295.05,282.382 291.231,278.563 286.519,278.563 L286.518,278.563 L73.069,278.563 C63.49,278.563 55.695,270.769 55.695,261.189 C55.695,251.61 63.489,243.817 73.069,243.817 L123.674,243.817 C128.386,243.817 132.205,239.997 132.205,235.285 C132.205,230.573 128.385,226.754 123.674,226.754 C113.862,226.754 105.877,218.77 105.877,208.957 C105.877,199.144 113.861,191.16 123.674,191.16 L270.171,191.16 C271.04,191.16 271.905,191.027 272.733,190.766 C274.055,190.35 305.266,180.21 318.646,148.657 C329.14,123.915 325.615,93.678 308.169,58.79 C307.014,56.481 304.878,54.819 302.355,54.269 C299.833,53.721 297.197,54.342 295.187,55.961 C294.9,56.192 266.173,79.02 232.994,79.02 C216.32,79.02 199.172,71.742 187.544,62.782 C185.369,60.734 179.289,55.219 177.74,53.157 C174.34,48.634 174.062,45.93 174.233,45.34 C176.952,35.936 210.345,17.632 261.861,17.632 C320.712,17.632 357.187,30.661 357.187,95.514 C357.187,119.856 355.872,139.403 353.165,155.273 C346.103,196.692 310.32,226.753 268.081,226.753 L150.149,226.753 C145.437,226.753 141.618,230.573 141.618,235.284 C141.618,239.996 145.438,243.816 150.149,243.816 L268.079,243.816 L350.07,243.816 C359.65,243.816 367.444,251.609 367.444,261.188 C367.444,270.767 359.651,278.562 350.07,278.562 L315.016,278.562 L315.015,278.562 C310.302,278.562 306.484,282.382 306.484,287.093 C306.484,291.805 310.303,295.624 315.015,295.624 L315.016,295.624 L350.07,295.624 L397.133,295.624 C406.712,295.624 414.505,303.417 414.505,312.996 C414.507,322.577 406.713,330.371 397.134,330.371 Z M430.872,306.085 C427.662,290.398 413.754,278.562 397.134,278.562 L396.925,278.562 C407.502,273.169 421.174,265.603 435.47,256.099 C460.263,239.617 479.297,222.504 492.43,204.926 C487.289,232.179 472.251,270.527 430.872,306.085 Z" id="Shape" fill="#000000"></path>
            </g>
        </g>
    </g>
</svg>