<?xml version="1.0" encoding="UTF-8" standalone="no"?>
<svg width="82px" height="45px" viewBox="0 0 82 45" version="1.1" xmlns="http://www.w3.org/2000/svg" xmlns:xlink="http://www.w3.org/1999/xlink">
    <!-- Generator: Sketch 48.2 (47327) - http://www.bohemiancoding.com/sketch -->
    <title>ticket-icon</title>
    <desc>Created with Sketch.</desc>
    <defs></defs>
    <g id="Purchase-Ticket---Complete" stroke="none" stroke-width="1" fill="none" fill-rule="evenodd" transform="translate(-528.000000, -190.000000)">
        <g id="ticket-icon" transform="translate(528.000000, 190.000000)" fill-rule="nonzero">
            <path d="M82,38.1063646 C80.092965,37.531895 78.7582015,35.8084862 78.7582015,33.7021575 C78.7582015,31.5958287 80.0931438,29.8724199 82,29.2979503 L82,26.8085221 C80.092965,26.2340525 78.7582015,24.5106436 78.7582015,22.4043149 C78.7582015,20.2979862 80.0931438,18.5745773 82,18.0001077 L82,15.7022293 C80.092965,15.1277596 78.7582015,13.4043508 78.7582015,11.2980221 C78.7582015,9.19169333 80.092965,7.46810497 82,6.89363536 L82,4.9786768 C79.3302941,4.9786768 77.0419237,2.68079835 77.0419237,0 L4.95825512,0 C4.95825512,2.68079835 2.66988469,4.9786768 0.00017877894,4.9786768 L0.00017877894,6.70208564 C1.90703495,7.27655526 3.2419773,8.9999641 3.2419773,11.1062928 C3.2419773,13.2126216 1.7164566,14.9360304 0.00017877894,15.7020497 L0.00017877894,18.1914779 C1.90721373,18.7659475 3.2419773,20.4893564 3.2419773,22.5956851 C3.2419773,24.7020138 1.90703495,26.4256022 0,27.0000718 L0,29.4895 C1.90703495,30.0639696 3.24179852,31.7873784 3.24179852,33.8937072 C3.2419773,36.0000359 1.90703495,37.7234447 0,38.2979144 L0,40.0213232 C2.66970591,40.0213232 4.95807634,42.3192016 4.95807634,45 L77.0417449,45 C77.0417449,42.3192016 79.3301153,40.0213232 81.9998212,40.0213232 L82,38.1063646 Z" id="Shape" fill="#FF7058"></path>
            <path d="M70,37 L11,37 L11,9 L70,9 L70,37 Z M13.4822603,34.4544954 L67.5179187,34.4544954 L67.5179187,11.5455046 L13.4822603,11.5455046 L13.4822603,34.4544954 Z" id="Shape" fill="#FFD15C"></path>
            <g id="Group" transform="translate(18.000000, 17.000000)" fill="#FFFFFF">
                <polygon id="Shape" points="0.132222436 2.25693401 3.01838748 2.25693401 3.01838748 10.845837 4.94255765 10.845837 4.94255765 2.25693401 8.02119383 2.25693401 8.02119383 0.500137894 0.132222436 0.500137894"></polygon>
                <rect id="Rectangle-path" x="8.79071758" y="0.500137894" width="1.92417016" height="10.3455161"></rect>
                <path d="M19.3733829,7.9178435 C18.7961499,8.69870277 18.0264457,9.08904091 17.0644508,9.08904091 C15.1402807,9.08904091 13.7935239,7.52750536 13.7935239,5.57544868 C13.7935239,3.62339199 15.1404611,2.06185644 17.0644508,2.06185644 C18.0264457,2.06185644 18.7961499,2.45219458 19.3733829,3.23305385 L19.565854,3.42831442 L21.1050819,2.45219458 L20.9126108,2.06185644 C19.9506159,0.695398463 18.6036787,0.109799757 17.0644508,0.109799757 C13.9858147,0.109799757 11.8693538,2.25693401 11.8693538,5.38018811 C11.8693538,8.5034422 13.9858147,10.6505765 17.0644508,10.6505765 C18.6036787,10.6505765 19.9506159,9.86971718 20.9126108,8.5034422 L21.1050819,8.11310407 L19.565854,7.13698422 L19.3733829,7.9178435 Z" id="Shape"></path>
                <polygon id="Shape" points="29.7635771 0.500137894 27.2621739 0.500137894 23.6064851 4.7945894 23.6064851 0.500137894 21.6823149 0.500137894 21.6823149 10.845837 23.6064851 10.845837 23.6064851 7.33224479 24.1837181 6.74664609 27.6471162 10.845837 29.9560482 10.845837 25.5304749 5.38018811"></polygon>
                <polygon id="Shape" points="30.5332812 10.845837 37.2676062 10.845837 37.2676062 9.08904091 32.2649802 9.08904091 32.2649802 6.35612495 37.2676062 6.35612495 37.2676062 4.59932883 32.2649802 4.59932883 32.2649802 2.25693401 37.2676062 2.25693401 37.2676062 0.500137894 30.5332812 0.500137894"></polygon>
                <polygon id="Shape" points="38.0373103 0.500137894 38.0373103 2.25693401 41.1157661 2.25693401 41.1157661 10.845837 42.8474652 10.845837 42.8474652 2.25693401 45.9261013 2.25693401 45.9261013 0.500137894"></polygon>
            </g>
        </g>
    </g>
</svg>