<svg width="163" height="56" viewBox="0 0 163 56" fill="none" xmlns="http://www.w3.org/2000/svg">
<path d="M23.7411 4.63866C21.9489 4.64751 20.2374 4.81007 18.7314 5.09348C14.2949 5.92703 13.4895 7.67171 13.4895 10.8892V15.1385H23.9733V16.555H13.4895H9.55496C6.50807 16.555 3.84012 18.5027 3.00562 22.2078C2.04303 26.4547 2.00033 29.1049 3.00562 33.5393C3.75084 36.8402 5.53055 39.1921 8.57745 39.1921H12.182V34.0981C12.182 30.418 15.176 27.1718 18.7314 27.1718H29.203C32.1179 27.1718 34.4449 24.6194 34.4449 21.5061V10.8892C34.4449 7.8676 32.0481 5.59777 29.203 5.09348C27.402 4.77465 25.5334 4.6298 23.7411 4.63866ZM18.0716 8.05632C19.1545 8.05632 20.0388 9.01218 20.0388 10.1875C20.0388 11.3586 19.1545 12.3057 18.0716 12.3057C16.9848 12.3057 16.1043 11.3586 16.1043 10.1875C16.1043 9.01218 16.9848 8.05632 18.0716 8.05632Z" fill="url(#paint0_linear_359_230)"/>
<path d="M35.7526 16.555V21.5061C35.7526 25.3445 32.6927 28.5753 29.2033 28.5753H18.7317C15.8633 28.5753 13.4897 31.1861 13.4897 34.2411V44.8579C13.4897 47.8795 15.9604 49.6568 18.7317 50.5237C22.0503 51.5615 25.2326 51.749 29.2033 50.5237C31.8426 49.711 34.4452 48.0754 34.4452 44.8579V40.6086H23.9736V39.1921H34.4452H39.6871C42.734 39.1921 43.8694 36.9319 44.9291 33.5393C46.0236 30.0468 45.977 26.6881 44.9291 22.2078C44.1761 18.9819 42.7379 16.555 39.6871 16.555H35.7526ZM29.8631 43.4415C30.9499 43.4415 31.8304 44.3885 31.8304 45.5596C31.8304 46.7349 30.9499 47.6908 29.8631 47.6908C28.7802 47.6908 27.8959 46.7349 27.8959 45.5596C27.8959 44.3885 28.7802 43.4415 29.8631 43.4415Z" fill="url(#paint1_linear_359_230)"/>
<path d="M152.424 47.3501V46.2461L158.04 38.4701H159.784V46.0861H161.384V47.3501H159.784V49.9261H158.344V47.3501H152.424ZM158.408 39.9901L154.104 46.0861H158.408V39.9901Z" fill="#F4F0F0"/>
<path d="M143.396 48.7581C144.751 47.6701 145.812 46.7794 146.58 46.0861C147.348 45.3821 147.994 44.6514 148.516 43.8941C149.05 43.1261 149.316 42.3741 149.316 41.6381C149.316 40.9447 149.146 40.4007 148.804 40.0061C148.474 39.6007 147.935 39.3981 147.188 39.3981C146.463 39.3981 145.898 39.6274 145.492 40.0861C145.098 40.5341 144.884 41.1367 144.852 41.8941H143.444C143.487 40.6994 143.85 39.7767 144.532 39.1261C145.215 38.4754 146.095 38.1501 147.172 38.1501C148.271 38.1501 149.14 38.4541 149.78 39.0621C150.431 39.6701 150.756 40.5074 150.756 41.5741C150.756 42.4594 150.49 43.3234 149.956 44.1661C149.434 44.9981 148.836 45.7341 148.164 46.3741C147.492 47.0034 146.634 47.7394 145.588 48.5821H151.092V49.7981H143.396V48.7581Z" fill="#F4F0F0"/>
<path d="M133.525 44.0221C133.525 42.1874 133.824 40.7581 134.421 39.7341C135.019 38.6994 136.064 38.1821 137.557 38.1821C139.04 38.1821 140.08 38.6994 140.677 39.7341C141.275 40.7581 141.573 42.1874 141.573 44.0221C141.573 45.8887 141.275 47.3394 140.677 48.3741C140.08 49.4087 139.04 49.9261 137.557 49.9261C136.064 49.9261 135.019 49.4087 134.421 48.3741C133.824 47.3394 133.525 45.8887 133.525 44.0221ZM140.133 44.0221C140.133 43.0941 140.069 42.3101 139.941 41.6701C139.824 41.0194 139.573 40.4967 139.189 40.1021C138.816 39.7074 138.272 39.5101 137.557 39.5101C136.832 39.5101 136.277 39.7074 135.893 40.1021C135.52 40.4967 135.269 41.0194 135.141 41.6701C135.024 42.3101 134.965 43.0941 134.965 44.0221C134.965 44.9821 135.024 45.7874 135.141 46.4381C135.269 47.0887 135.52 47.6114 135.893 48.0061C136.277 48.4007 136.832 48.5981 137.557 48.5981C138.272 48.5981 138.816 48.4007 139.189 48.0061C139.573 47.6114 139.824 47.0887 139.941 46.4381C140.069 45.7874 140.133 44.9821 140.133 44.0221Z" fill="#F4F0F0"/>
<path d="M124.146 48.7581C125.501 47.6701 126.562 46.7794 127.33 46.0861C128.098 45.3821 128.744 44.6514 129.266 43.8941C129.8 43.1261 130.066 42.3741 130.066 41.6381C130.066 40.9447 129.896 40.4007 129.554 40.0061C129.224 39.6007 128.685 39.3981 127.938 39.3981C127.213 39.3981 126.648 39.6274 126.242 40.0861C125.848 40.5341 125.634 41.1367 125.602 41.8941H124.194C124.237 40.6994 124.6 39.7767 125.282 39.1261C125.965 38.4754 126.845 38.1501 127.922 38.1501C129.021 38.1501 129.89 38.4541 130.53 39.0621C131.181 39.6701 131.506 40.5074 131.506 41.5741C131.506 42.4594 131.24 43.3234 130.706 44.1661C130.184 44.9981 129.586 45.7341 128.914 46.3741C128.242 47.0034 127.384 47.7394 126.338 48.5821H131.842V49.7981H124.146V48.7581Z" fill="#F4F0F0"/>
<path d="M116.108 47.446H111.244L110.348 49.926H108.812L112.844 38.838H114.524L118.54 49.926H117.004L116.108 47.446ZM115.692 46.262L113.676 40.63L111.66 46.262H115.692Z" fill="#F4F0F0"/>
<path d="M107.034 38.774V49.926H105.578V38.774H107.034Z" fill="#F4F0F0"/>
<path d="M101.716 49.926L99.0598 45.366H97.2998V49.926H95.8438V38.774H99.4438C100.286 38.774 100.996 38.918 101.572 39.206C102.158 39.494 102.596 39.8834 102.884 40.374C103.172 40.8647 103.316 41.4247 103.316 42.054C103.316 42.822 103.092 43.4994 102.644 44.086C102.206 44.6727 101.545 45.062 100.66 45.254L103.46 49.926H101.716ZM97.2998 44.198H99.4438C100.233 44.198 100.825 44.006 101.22 43.622C101.614 43.2274 101.812 42.7047 101.812 42.054C101.812 41.3927 101.614 40.8807 101.22 40.518C100.836 40.1554 100.244 39.974 99.4438 39.974H97.2998V44.198Z" fill="#F4F0F0"/>
<path d="M89.0966 39.9581V43.6861H93.1606V44.8861H89.0966V48.7261H93.6406V49.9261H87.6406V38.7581H93.6406V39.9581H89.0966Z" fill="#F4F0F0"/>
<path d="M83.6356 42.0061C83.3262 41.3554 82.8782 40.8541 82.2916 40.5021C81.7049 40.1394 81.0222 39.9581 80.2436 39.9581C79.4649 39.9581 78.7609 40.1394 78.1316 40.5021C77.5129 40.8541 77.0222 41.3661 76.6596 42.0381C76.3076 42.6994 76.1316 43.4674 76.1316 44.3421C76.1316 45.2167 76.3076 45.9847 76.6596 46.6461C77.0222 47.3074 77.5129 47.8194 78.1316 48.1821C78.7609 48.5341 79.4649 48.7101 80.2436 48.7101C81.3316 48.7101 82.2276 48.3847 82.9316 47.7341C83.6356 47.0834 84.0462 46.2034 84.1636 45.0941H79.7156V43.9101H85.7156V45.0301C85.6302 45.9474 85.3422 46.7901 84.8516 47.5581C84.3609 48.3154 83.7156 48.9181 82.9156 49.3661C82.1156 49.8034 81.2249 50.0221 80.2436 50.0221C79.2089 50.0221 78.2649 49.7821 77.4116 49.3021C76.5582 48.8114 75.8809 48.1341 75.3796 47.2701C74.8889 46.4061 74.6436 45.4301 74.6436 44.3421C74.6436 43.2541 74.8889 42.2781 75.3796 41.4141C75.8809 40.5394 76.5582 39.8621 77.4116 39.3821C78.2649 38.8914 79.2089 38.6461 80.2436 38.6461C81.4276 38.6461 82.4729 38.9394 83.3796 39.5261C84.2969 40.1127 84.9636 40.9394 85.3796 42.0061H83.6356Z" fill="#F4F0F0"/>
<path d="M72.706 38.774V49.926H71.25V38.774H72.706Z" fill="#F4F0F0"/>
<path d="M68.768 49.9261H67.312L61.456 41.0461V49.9261H60V38.7581H61.456L67.312 47.6221V38.7581H68.768V49.9261Z" fill="#F4F0F0"/>
<path d="M162.166 25.9261H157.378L149.37 13.802V25.9261H144.582V6.27005H149.37L157.378 18.4501V6.27005H162.166V25.9261Z" fill="#04A38A"/>
<path d="M130.746 26.1221C128.898 26.1221 127.199 25.6927 125.65 24.8341C124.119 23.9754 122.896 22.7807 121.982 21.2501C121.086 19.7007 120.638 17.9647 120.638 16.0421C120.638 14.1194 121.086 12.3927 121.982 10.8621C122.896 9.33139 124.119 8.13672 125.65 7.27805C127.199 6.41938 128.898 5.99005 130.746 5.99005C132.594 5.99005 134.283 6.41938 135.814 7.27805C137.363 8.13672 138.576 9.33139 139.454 10.8621C140.35 12.3927 140.798 14.1194 140.798 16.0421C140.798 17.9647 140.35 19.7007 139.454 21.2501C138.558 22.7807 137.344 23.9754 135.814 24.8341C134.283 25.6927 132.594 26.1221 130.746 26.1221ZM130.746 21.7541C132.314 21.7541 133.564 21.2314 134.498 20.1861C135.45 19.1407 135.926 17.7594 135.926 16.0421C135.926 14.3061 135.45 12.9247 134.498 11.8981C133.564 10.8527 132.314 10.3301 130.746 10.3301C129.159 10.3301 127.89 10.8434 126.938 11.8701C126.004 12.8967 125.538 14.2874 125.538 16.0421C125.538 17.7781 126.004 19.1687 126.938 20.2141C127.89 21.2407 129.159 21.7541 130.746 21.7541Z" fill="#04A38A"/>
<path d="M98.1899 16.0701C98.1899 14.1287 98.6099 12.4021 99.4499 10.8901C100.29 9.35939 101.457 8.17405 102.95 7.33405C104.462 6.47538 106.17 6.04605 108.074 6.04605C110.407 6.04605 112.405 6.66205 114.066 7.89405C115.727 9.12605 116.838 10.8061 117.398 12.9341H112.134C111.742 12.1127 111.182 11.4874 110.454 11.0581C109.745 10.6287 108.933 10.4141 108.018 10.4141C106.543 10.4141 105.349 10.9274 104.434 11.9541C103.519 12.9807 103.062 14.3527 103.062 16.0701C103.062 17.7874 103.519 19.1594 104.434 20.1861C105.349 21.2127 106.543 21.7261 108.018 21.7261C108.933 21.7261 109.745 21.5114 110.454 21.0821C111.182 20.6527 111.742 20.0274 112.134 19.2061H117.398C116.838 21.3341 115.727 23.0141 114.066 24.2461C112.405 25.4594 110.407 26.0661 108.074 26.0661C106.17 26.0661 104.462 25.6461 102.95 24.8061C101.457 23.9474 100.29 22.7621 99.4499 21.2501C98.6099 19.7381 98.1899 18.0114 98.1899 16.0701Z" fill="#04A38A"/>
<path d="M95.9526 6.27005L89.1486 19.43V25.9261H84.3606V19.43L77.5566 6.27005H82.9886L86.7966 14.5021L90.5766 6.27005H95.9526Z" fill="#04A38A"/>
<path d="M75.4839 12.598C75.4839 13.7367 75.2226 14.782 74.6999 15.734C74.1772 16.6674 73.3746 17.4234 72.2919 18.0021C71.2092 18.5807 69.8652 18.8701 68.2599 18.8701H65.2919V25.9261H60.5039V6.27005H68.2599C69.8279 6.27005 71.1532 6.54072 72.2359 7.08205C73.3186 7.62338 74.1306 8.37005 74.6719 9.32205C75.2132 10.274 75.4839 11.366 75.4839 12.598ZM67.8959 15.062C68.8106 15.062 69.4919 14.8474 69.9399 14.4181C70.3879 13.9887 70.6119 13.382 70.6119 12.598C70.6119 11.814 70.3879 11.2074 69.9399 10.778C69.4919 10.3487 68.8106 10.1341 67.8959 10.1341H65.2919V15.062H67.8959Z" fill="#04A38A"/>
<defs>
<linearGradient id="paint0_linear_359_230" x1="2.26758" y1="4.63828" x2="27.6808" y2="25.0007" gradientUnits="userSpaceOnUse">
<stop stop-color="#55FCCA"/>
<stop offset="1" stop-color="#05C880"/>
</linearGradient>
<linearGradient id="paint1_linear_359_230" x1="29.6112" y1="45.2024" x2="20.2171" y2="32.8245" gradientUnits="userSpaceOnUse">
<stop stop-color="#FEFFDD"/>
<stop offset="1" stop-color="#F4F0F0"/>
</linearGradient>
</defs>
</svg>
