<?xml version="1.0" encoding="UTF-8" standalone="no"?>
<svg width="28px" height="32px" viewBox="0 0 28 32" version="1.1" xmlns="http://www.w3.org/2000/svg" xmlns:xlink="http://www.w3.org/1999/xlink">
    <!-- Generator: Sketch 48.2 (47327) - http://www.bohemiancoding.com/sketch -->
    <title>cocktail</title>
    <desc>Created with Sketch.</desc>
    <defs></defs>
    <g id="Schedule" stroke="none" stroke-width="1" fill="none" fill-rule="evenodd" transform="translate(-681.000000, -655.000000)">
        <g id="cocktail" transform="translate(681.000000, 655.000000)" fill="#292929" fill-rule="nonzero">
            <path d="M27.8409091,9.33333333 C27.8409091,5.6 24.9242424,2.66666667 21.2121212,2.66666667 C18.030303,2.66666667 15.3787879,4.93333333 14.7159091,8 L9.41287879,8 L7.95454545,1.06666667 C7.8219697,0.4 7.29166667,0 6.62878788,0 L1.32575758,0 C0.53030303,0 0,0.533333333 0,1.33333333 C0,2.13333333 0.53030303,2.66666667 1.32575758,2.66666667 L5.56818182,2.66666667 L6.76136364,8 L2.65151515,8 C1.85606061,8 1.32575758,8.53333333 1.32575758,9.33333333 L1.32575758,26.6666667 C1.32575758,29.6 3.71212121,32 6.62878788,32 L17.2348485,32 C20.1515152,32 22.5378788,29.6 22.5378788,26.6666667 L22.5378788,15.8666667 C25.5871212,15.2 27.8409091,12.5333333 27.8409091,9.33333333 Z M19.8863636,10.6666667 L19.8863636,18.6666667 L11.7992424,18.6666667 L10.0757576,10.6666667 L19.8863636,10.6666667 Z M7.29166667,10.6666667 L9.01515152,18.6666667 L3.97727273,18.6666667 L3.97727273,10.6666667 L7.29166667,10.6666667 Z" id="Shape"></path>
        </g>
    </g>
</svg>