<?xml version="1.0" encoding="UTF-8" standalone="no"?>
<svg width="32px" height="32px" viewBox="0 0 32 32" version="1.1" xmlns="http://www.w3.org/2000/svg" xmlns:xlink="http://www.w3.org/1999/xlink">
    <!-- Generator: Sketch 48.2 (47327) - http://www.bohemiancoding.com/sketch -->
    <title>coffee</title>
    <desc>Created with Sketch.</desc>
    <defs></defs>
    <g id="Schedule" stroke="none" stroke-width="1" fill="none" fill-rule="evenodd" transform="translate(-684.000000, -3031.000000)">
        <g id="coffee" transform="translate(684.000000, 3031.000000)" fill="#292929" fill-rule="nonzero">
            <path d="M30.6666667,9.33333333 L25.3333333,9.33333333 L1.33333333,9.33333333 C0.533333333,9.33333333 0,9.86666667 0,10.6666667 L0,14.6666667 C0,22 6,28 13.3333333,28 C18.8,28 23.4666667,24.6666667 25.6,20 L28,20 C30.2666667,20 32,18.2666667 32,16 L32,10.6666667 C32,9.86666667 31.4666667,9.33333333 30.6666667,9.33333333 Z M29.3333333,16 C29.3333333,16.8 28.8,17.3333333 28,17.3333333 L26.4,17.3333333 C26.5333333,16.5333333 26.6666667,15.6 26.6666667,14.6666667 L26.6666667,12 L29.3333333,12 L29.3333333,16 Z" id="Shape"></path>
            <path d="M25.3333333,29.3333333 L1.33333333,29.3333333 C0.533333333,29.3333333 0,29.8666667 0,30.6666667 C0,31.4666667 0.533333333,32 1.33333333,32 L25.3333333,32 C26.1333333,32 26.6666667,31.4666667 26.6666667,30.6666667 C26.6666667,29.8666667 26.1333333,29.3333333 25.3333333,29.3333333 Z" id="Shape"></path>
            <path d="M13.3333333,5.33333333 C14.1333333,5.33333333 14.6666667,4.8 14.6666667,4 L14.6666667,1.33333333 C14.6666667,0.533333333 14.1333333,0 13.3333333,0 C12.5333333,0 12,0.533333333 12,1.33333333 L12,4 C12,4.8 12.5333333,5.33333333 13.3333333,5.33333333 Z" id="Shape"></path>
            <path d="M6.66666667,6.66666667 C7.46666667,6.66666667 8,6.13333333 8,5.33333333 L8,2.66666667 C8,1.86666667 7.46666667,1.33333333 6.66666667,1.33333333 C5.86666667,1.33333333 5.33333333,1.86666667 5.33333333,2.66666667 L5.33333333,5.33333333 C5.33333333,6.13333333 5.86666667,6.66666667 6.66666667,6.66666667 Z" id="Shape"></path>
            <path d="M20,6.66666667 C20.8,6.66666667 21.3333333,6.13333333 21.3333333,5.33333333 L21.3333333,2.66666667 C21.3333333,1.86666667 20.8,1.33333333 20,1.33333333 C19.2,1.33333333 18.6666667,1.86666667 18.6666667,2.66666667 L18.6666667,5.33333333 C18.6666667,6.13333333 19.2,6.66666667 20,6.66666667 Z" id="Shape"></path>
        </g>
    </g>
</svg>