<?xml version="1.0" encoding="UTF-8" standalone="no"?>
<svg width="25px" height="32px" viewBox="0 0 25 32" version="1.1" xmlns="http://www.w3.org/2000/svg" xmlns:xlink="http://www.w3.org/1999/xlink">
    <!-- Generator: Sketch 48.2 (47327) - http://www.bohemiancoding.com/sketch -->
    <title>cutlery-76</title>
    <desc>Created with Sketch.</desc>
    <defs></defs>
    <g id="Schedule" stroke="none" stroke-width="1" fill="none" fill-rule="evenodd" transform="translate(-685.000000, -2117.000000)">
        <g id="cutlery-76" transform="translate(685.000000, 2117.000000)" fill="#292929" fill-rule="nonzero">
            <path d="M6.57894737,0 C2.89473684,0 0,2.93333333 0,6.66666667 L0,9.33333333 C0,12 1.57894737,14.4 3.94736842,15.4666667 L3.94736842,29.3333333 C3.94736842,30.8 5.13157895,32 6.57894737,32 C8.02631579,32 9.21052632,30.8 9.21052632,29.3333333 L9.21052632,15.4666667 C11.5789474,14.4 13.1578947,12 13.1578947,9.33333333 L13.1578947,6.66666667 C13.1578947,2.93333333 10.2631579,0 6.57894737,0 Z" id="Shape"></path>
            <path d="M23.6842105,0 C19.3421053,0 15.7894737,3.6 15.7894737,8 L15.7894737,20 C15.7894737,20.8 16.3157895,21.3333333 17.1052632,21.3333333 L19.7368421,21.3333333 L19.7368421,29.3333333 C19.7368421,30.8 20.9210526,32 22.3684211,32 C23.8157895,32 25,30.8 25,29.3333333 L25,1.33333333 C25,0.533333333 24.4736842,0 23.6842105,0 Z" id="Shape"></path>
        </g>
    </g>
</svg>