<?xml version="1.0" encoding="UTF-8" standalone="no"?>
<svg width="171px" height="44px" viewBox="0 0 171 44" version="1.1" xmlns="http://www.w3.org/2000/svg" xmlns:xlink="http://www.w3.org/1999/xlink">
    <!-- Generator: Sketch 48.2 (47327) - http://www.bohemiancoding.com/sketch -->
    <title>Pycon-Logo-Light</title>
    <desc>Created with Sketch.</desc>
    <defs>
        <path d="M32.11425,10.746375 L32.11425,15.2115 C32.11425,18.67275 29.179125,21.5865 25.833,21.5865 L15.790125,21.5865 C13.039125,21.5865 10.7625,23.94075 10.7625,26.695875 L10.7625,36.27 C10.7625,38.99475 13.13175,40.5975 15.790125,41.379375 C17.43675,41.863875 19.048875,42.1425 20.74875,42.145875 L20.812875,42.145875 C22.3785,42.1425 24.02025,41.905125 25.833,41.379375 C28.36425,40.64625 30.86025,39.171375 30.86025,36.27 L30.86025,32.437875 L20.817375,32.437875 L20.817375,31.160625 L30.86025,31.160625 L35.8875,31.160625 C38.809875,31.160625 39.8985,29.122125 40.91475,26.062875 C41.96475,22.913625 41.91975,19.884375 40.91475,15.844125 C40.192875,12.934875 38.813625,10.746375 35.8875,10.746375 L32.11425,10.746375 Z M24.579,36.902625 C24.579,35.84625 25.42725,34.992375 26.465625,34.992375 C27.508125,34.992375 28.35225,35.84625 28.35225,36.902625 C28.35225,37.962375 27.508125,38.8245 26.465625,38.8245 C25.42725,38.8245 24.579,37.962375 24.579,36.902625 Z" id="path-1"></path>
    </defs>
    <g id="Styleguide" stroke="none" stroke-width="1" fill="none" fill-rule="evenodd" transform="translate(-115.000000, -634.000000)">
        <g id="Pycon-Logo-Light" transform="translate(115.000000, 634.000000)">
            <g id="Group">
                <path d="M20.594625,0.00075 C18.875625,0.00825 17.23425,0.154875 15.790125,0.410625 C11.535,1.162125 10.7625,2.73525 10.7625,5.637 L10.7625,9.469125 L20.817375,9.469125 L20.817375,10.746375 L10.7625,10.746375 L6.988875,10.746375 C4.066875,10.746375 1.50825,12.502875 0.707625,15.844125 C0.246375,17.75925 0.00525,19.314 0,20.890125 L0,20.990625 C0.004875,22.534125 0.235875,24.106125 0.707625,26.062875 C1.42275,29.03925 3.129375,31.160625 6.05175,31.160625 L9.508875,31.160625 L9.508875,26.566875 C9.508875,23.24775 12.38025,20.320875 15.790125,20.320875 L25.833,20.320875 C28.62825,20.320875 30.86025,18.019125 30.86025,15.2115 L30.86025,5.637 C30.86025,2.91225 28.5615,0.865125 25.833,0.410625 C24.156,0.13125 22.41825,0.000375 20.745375,0.000375 C20.695125,0.000375 20.644875,0.000375 20.594625,0.00075 M13.2705,5.004375 C13.2705,3.94425 14.114625,3.082125 15.157125,3.082125 C16.1955,3.082125 17.04375,3.94425 17.04375,5.004375 C17.04375,6.060375 16.1955,6.914625 15.157125,6.914625 C14.114625,6.914625 13.2705,6.060375 13.2705,5.004375" id="Clip-2" fill="#11BD8A"></path>
                <mask id="mask-2" fill="white">
                    <use xlink:href="#path-1"></use>
                </mask>
                <use id="Clip-5" fill="#FFFFFF" xlink:href="#path-1"></use>
            </g>
            <path d="M60.16,1.76 L68.05,1.76 C69.1500055,1.76 70.1899951,1.859999 71.17,2.06 C72.1500049,2.260001 73.0049963,2.60499755 73.735,3.095 C74.4650036,3.58500245 75.0449979,4.24499585 75.475,5.075 C75.9050022,5.90500415 76.12,6.9499937 76.12,8.21 C76.12,9.4500062 75.920002,10.4899958 75.52,11.33 C75.119998,12.1700042 74.5700035,12.8399975 73.87,13.34 C73.1699965,13.8400025 72.3400048,14.194999 71.38,14.405 C70.4199952,14.6150011 69.3800056,14.72 68.26,14.72 L64.84,14.72 L64.84,23 L60.16,23 L60.16,1.76 Z M64.84,10.76 L67.96,10.76 C68.3800021,10.76 68.784998,10.7200004 69.175,10.64 C69.5650019,10.5599996 69.9149984,10.425001 70.225,10.235 C70.5350016,10.0449991 70.784999,9.78500165 70.975,9.455 C71.165001,9.12499835 71.26,8.7100025 71.26,8.21 C71.26,7.6699973 71.1350013,7.23500165 70.885,6.905 C70.6349987,6.57499835 70.3150019,6.3200009 69.925,6.14 C69.534998,5.9599991 69.1000024,5.84500025 68.62,5.795 C68.1399976,5.74499975 67.6800022,5.72 67.24,5.72 L64.84,5.72 L64.84,10.76 Z M85.8843477,13.94 L77.9043477,1.76 L83.7243477,1.76 L88.2243477,9.71 L92.9943477,1.76 L98.5443477,1.76 L90.5643477,13.94 L90.5643477,23 L85.8843477,23 L85.8843477,13.94 Z M115.598695,7.28 C115.138693,6.7199972 114.573699,6.2900015 113.903695,5.99 C113.233692,5.6899985 112.4587,5.54 111.578695,5.54 C110.698691,5.54 109.883699,5.7099983 109.133695,6.05 C108.383692,6.3900017 107.733698,6.86499695 107.183695,7.475 C106.633693,8.08500305 106.203697,8.8099958 105.893695,9.65 C105.583694,10.4900042 105.428695,11.3999951 105.428695,12.38 C105.428695,13.380005 105.583694,14.2949959 105.893695,15.125 C106.203697,15.9550042 106.628693,16.674997 107.168695,17.285 C107.708698,17.8950031 108.343692,18.3699983 109.073695,18.71 C109.803699,19.0500017 110.588691,19.22 111.428695,19.22 C112.3887,19.22 113.238692,19.020002 113.978695,18.62 C114.718699,18.219998 115.328693,17.6600036 115.808695,16.94 L119.708695,19.85 C118.808691,21.1100063 117.668702,22.039997 116.288695,22.64 C114.908689,23.240003 113.488703,23.54 112.028695,23.54 C110.368687,23.54 108.838702,23.2800026 107.438695,22.76 C106.038688,22.2399974 104.828701,21.4950049 103.808695,20.525 C102.78869,19.5549952 101.993698,18.3800069 101.423695,17 C100.853693,15.6199931 100.568695,14.0800085 100.568695,12.38 C100.568695,10.6799915 100.853693,9.1400069 101.423695,7.76 C101.993698,6.3799931 102.78869,5.20500485 103.808695,4.235 C104.828701,3.26499515 106.038688,2.5200026 107.438695,2 C108.838702,1.4799974 110.368687,1.22 112.028695,1.22 C112.628698,1.22 113.253692,1.27499945 113.903695,1.385 C114.553699,1.49500055 115.193692,1.6699988 115.823695,1.91 C116.453699,2.1500012 117.058693,2.469998 117.638695,2.87 C118.218698,3.270002 118.738693,3.7599971 119.198695,4.34 L115.598695,7.28 Z M122.723043,12.38 C122.723043,10.6799915 123.00804,9.1400069 123.578043,7.76 C124.148046,6.3799931 124.943038,5.20500485 125.963043,4.235 C126.983048,3.26499515 128.193036,2.5200026 129.593043,2 C130.99305,1.4799974 132.523035,1.22 134.183043,1.22 C135.843051,1.22 137.373036,1.4799974 138.773043,2 C140.17305,2.5200026 141.383038,3.26499515 142.403043,4.235 C143.423048,5.20500485 144.21804,6.3799931 144.788043,7.76 C145.358046,9.1400069 145.643043,10.6799915 145.643043,12.38 C145.643043,14.0800085 145.358046,15.6199931 144.788043,17 C144.21804,18.3800069 143.423048,19.5549952 142.403043,20.525 C141.383038,21.4950049 140.17305,22.2399974 138.773043,22.76 C137.373036,23.2800026 135.843051,23.54 134.183043,23.54 C132.523035,23.54 130.99305,23.2800026 129.593043,22.76 C128.193036,22.2399974 126.983048,21.4950049 125.963043,20.525 C124.943038,19.5549952 124.148046,18.3800069 123.578043,17 C123.00804,15.6199931 122.723043,14.0800085 122.723043,12.38 Z M127.583043,12.38 C127.583043,13.380005 127.738042,14.2949959 128.048043,15.125 C128.358045,15.9550042 128.80304,16.674997 129.383043,17.285 C129.963046,17.8950031 130.658039,18.3699983 131.468043,18.71 C132.278047,19.0500017 133.183038,19.22 134.183043,19.22 C135.183048,19.22 136.088039,19.0500017 136.898043,18.71 C137.708047,18.3699983 138.40304,17.8950031 138.983043,17.285 C139.563046,16.674997 140.008042,15.9550042 140.318043,15.125 C140.628045,14.2949959 140.783043,13.380005 140.783043,12.38 C140.783043,11.3999951 140.628045,10.4900042 140.318043,9.65 C140.008042,8.8099958 139.563046,8.08500305 138.983043,7.475 C138.40304,6.86499695 137.708047,6.3900017 136.898043,6.05 C136.088039,5.7099983 135.183048,5.54 134.183043,5.54 C133.183038,5.54 132.278047,5.7099983 131.468043,6.05 C130.658039,6.3900017 129.963046,6.86499695 129.383043,7.475 C128.80304,8.08500305 128.358045,8.8099958 128.048043,9.65 C127.738042,10.4900042 127.583043,11.3999951 127.583043,12.38 Z M150.427391,1.76 L156.787391,1.76 L165.817391,16.52 L165.877391,16.52 L165.877391,1.76 L170.557391,1.76 L170.557391,23 L164.437391,23 L155.167391,7.88 L155.107391,7.88 L155.107391,23 L150.427391,23 L150.427391,1.76 Z" id="PYCON" fill="#FFFFFF"></path>
            <path d="M59.365,32.38 L61.255,32.38 L67.105,41.11 L67.135,41.11 L67.135,32.38 L68.575,32.38 L68.575,43 L66.745,43 L60.835,34.27 L60.805,34.27 L60.805,43 L59.365,43 L59.365,32.38 Z M72.605,32.38 L74.045,32.38 L74.045,43 L72.605,43 L72.605,32.38 Z M87.1199999,37.06 L87.1199999,42.295 C86.8599986,42.4550008 86.5650016,42.5949994 86.2349999,42.715 C85.9049983,42.8350006 85.5625017,42.9374996 85.2074999,43.0225 C84.8524981,43.1075004 84.4925017,43.1699998 84.1274999,43.21 C83.7624981,43.2500002 83.4200015,43.27 83.0999999,43.27 C82.1999954,43.27 81.3975034,43.1200015 80.6924999,42.82 C79.9874964,42.5199985 79.3925023,42.1150026 78.9074999,41.605 C78.4224975,41.0949975 78.0525012,40.5025034 77.7974999,39.8275 C77.5424986,39.1524966 77.4149999,38.4400038 77.4149999,37.69 C77.4149999,36.8999961 77.5524985,36.1650034 77.8274999,35.485 C78.1025013,34.8049966 78.4824975,34.2150025 78.9674999,33.715 C79.4525023,33.2149975 80.0349965,32.8225014 80.7149999,32.5375 C81.3950033,32.2524986 82.1399959,32.11 82.9499999,32.11 C83.9300048,32.11 84.7299968,32.2324988 85.3499999,32.4775 C85.970003,32.7225012 86.4899978,33.0599979 86.9099999,33.49 L85.8899999,34.585 C85.4499977,34.1649979 84.9850024,33.8725008 84.4949999,33.7075 C84.0049975,33.5424992 83.4900026,33.46 82.9499999,33.46 C82.3399969,33.46 81.7900024,33.5724989 81.2999999,33.7975 C80.8099975,34.0225011 80.3900017,34.3249981 80.0399999,34.705 C79.6899982,35.0850019 79.4200009,35.5324974 79.2299999,36.0475 C79.039999,36.5625026 78.9449999,37.1099971 78.9449999,37.69 C78.9449999,38.290003 79.0499989,38.8474974 79.2599999,39.3625 C79.470001,39.8775026 79.7599981,40.3249981 80.1299999,40.705 C80.5000018,41.0850019 80.9349974,41.3824989 81.4349999,41.5975 C81.9350024,41.8125011 82.479997,41.92 83.0699999,41.92 C83.5800025,41.92 84.0624976,41.8725005 84.5174999,41.7775 C84.9725022,41.6824995 85.3599983,41.5450009 85.6799999,41.365 L85.6799999,38.41 L83.3249999,38.41 L83.3249999,37.06 L87.1199999,37.06 Z M91.0449999,32.38 L97.8999999,32.38 L97.8999999,33.73 L92.4849999,33.73 L92.4849999,36.895 L97.5249999,36.895 L97.5249999,38.245 L92.4849999,38.245 L92.4849999,41.65 L98.1699999,41.65 L98.1699999,43 L91.0449999,43 L91.0449999,32.38 Z M101.51,32.38 L105.245,32.38 C105.925003,32.38 106.484998,32.4724991 106.925,32.6575 C107.365002,32.8425009 107.712499,33.0774986 107.9675,33.3625 C108.222501,33.6475014 108.399999,33.9674982 108.5,34.3225 C108.6,34.6775018 108.65,35.0199984 108.65,35.35 C108.65,35.6900017 108.59,36.0174984 108.47,36.3325 C108.349999,36.6475016 108.177501,36.9324987 107.9525,37.1875 C107.727499,37.4425013 107.452501,37.6574991 107.1275,37.8325 C106.802498,38.0075009 106.440002,38.1149998 106.04,38.155 L109.055,43 L107.255,43 L104.555,38.32 L102.95,38.32 L102.95,43 L101.51,43 L101.51,32.38 Z M102.95,37.06 L104.84,37.06 C105.120001,37.06 105.397498,37.0375002 105.6725,36.9925 C105.947501,36.9474998 106.192499,36.8650006 106.4075,36.745 C106.622501,36.6249994 106.794999,36.4525011 106.925,36.2275 C107.055,36.0024989 107.12,35.7100018 107.12,35.35 C107.12,34.9899982 107.055,34.6975011 106.925,34.4725 C106.794999,34.2474989 106.622501,34.0750006 106.4075,33.955 C106.192499,33.8349994 105.947501,33.7525002 105.6725,33.7075 C105.397498,33.6624998 105.120001,33.64 104.84,33.64 L102.95,33.64 L102.95,37.06 Z M111.975,32.38 L113.415,32.38 L113.415,43 L111.975,43 L111.975,32.38 Z M120.775,32.38 L122.08,32.38 L126.625,43 L124.945,43 L123.88,40.375 L118.825,40.375 L117.775,43 L116.095,43 L120.775,32.38 Z M123.355,39.115 L121.375,34.24 L121.345,34.24 L119.335,39.115 L123.355,39.115 Z M134.1,41.47 L138.36,37.24 C138.51,37.0999993 138.654999,36.9475008 138.795,36.7825 C138.935,36.6174992 139.059999,36.4450009 139.17,36.265 C139.28,36.0849991 139.367499,35.895001 139.4325,35.695 C139.4975,35.494999 139.53,35.2850011 139.53,35.065 C139.53,34.8049987 139.4825,34.5700011 139.3875,34.36 C139.292499,34.149999 139.1625,33.9725007 138.9975,33.8275 C138.832499,33.6824993 138.637501,33.5700004 138.4125,33.49 C138.187498,33.4099996 137.950001,33.37 137.7,33.37 C137.179997,33.37 136.750001,33.5149986 136.41,33.805 C136.069998,34.0950015 135.855,34.4949975 135.765,35.005 L134.205,34.87 C134.275,34.3999977 134.412499,33.9925017 134.6175,33.6475 C134.822501,33.3024983 135.077498,33.0150012 135.3825,32.785 C135.687501,32.5549989 136.037498,32.3850006 136.4325,32.275 C136.827502,32.1649995 137.254997,32.11 137.715,32.11 C138.175002,32.11 138.607498,32.1724994 139.0125,32.2975 C139.417502,32.4225006 139.772498,32.6074988 140.0775,32.8525 C140.382501,33.0975012 140.622499,33.4024982 140.7975,33.7675 C140.9725,34.1325018 141.06,34.5599976 141.06,35.05 C141.06,35.4000018 141.0075,35.7274985 140.9025,36.0325 C140.797499,36.3375015 140.66,36.6249987 140.49,36.895 C140.319999,37.1650014 140.125001,37.4199988 139.905,37.66 C139.684999,37.9000012 139.455001,38.1349989 139.215,38.365 L135.72,41.74 L141.06,41.74 L141.06,43 L134.1,43 L134.1,41.47 Z M143.56,37.69 C143.56,37.2999981 143.579999,36.8950021 143.62,36.475 C143.66,36.0549979 143.732499,35.642502 143.8375,35.2375 C143.9425,34.832498 144.082499,34.4450019 144.2575,34.075 C144.4325,33.7049982 144.657498,33.3825014 144.9325,33.1075 C145.207501,32.8324986 145.532498,32.6125008 145.9075,32.4475 C146.282501,32.2824992 146.719997,32.2 147.22,32.2 C147.720002,32.2 148.157498,32.2824992 148.5325,32.4475 C148.907501,32.6125008 149.232498,32.8324986 149.5075,33.1075 C149.782501,33.3825014 150.007499,33.7049982 150.1825,34.075 C150.3575,34.4450019 150.497499,34.832498 150.6025,35.2375 C150.7075,35.642502 150.779999,36.0549979 150.82,36.475 C150.86,36.8950021 150.88,37.2999981 150.88,37.69 C150.88,38.2500028 150.83,38.8499968 150.73,39.49 C150.629999,40.1300032 150.445001,40.7249973 150.175,41.275 C149.904998,41.8250028 149.532502,42.2799982 149.0575,42.64 C148.582497,43.0000018 147.970003,43.18 147.22,43.18 C146.469996,43.18 145.857502,43.0000018 145.3825,42.64 C144.907497,42.2799982 144.535001,41.8250028 144.265,41.275 C143.994998,40.7249973 143.81,40.1300032 143.71,39.49 C143.609999,38.8499968 143.56,38.2500028 143.56,37.69 Z M145,37.69 C145,38.0400018 145.022499,38.4549976 145.0675,38.935 C145.1125,39.4150024 145.209999,39.8774978 145.36,40.3225 C145.51,40.7675022 145.732498,41.1449985 146.0275,41.455 C146.322501,41.7650016 146.719997,41.92 147.22,41.92 C147.720002,41.92 148.117498,41.7650016 148.4125,41.455 C148.707501,41.1449985 148.929999,40.7675022 149.08,40.3225 C149.23,39.8774978 149.327499,39.4150024 149.3725,38.935 C149.4175,38.4549976 149.44,38.0400018 149.44,37.69 C149.44,37.4499988 149.4325,37.1775015 149.4175,36.8725 C149.402499,36.5674985 149.3675,36.2575016 149.3125,35.9425 C149.257499,35.6274984 149.18,35.3225015 149.08,35.0275 C148.979999,34.7324985 148.8475,34.4675012 148.6825,34.2325 C148.517499,33.9974988 148.315001,33.8100007 148.075,33.67 C147.834998,33.5299993 147.550001,33.46 147.22,33.46 C146.889998,33.46 146.605001,33.5299993 146.365,33.67 C146.124998,33.8100007 145.9225,33.9974988 145.7575,34.2325 C145.592499,34.4675012 145.46,34.7324985 145.36,35.0275 C145.259999,35.3225015 145.1825,35.6274984 145.1275,35.9425 C145.072499,36.2575016 145.0375,36.5674985 145.0225,36.8725 C145.007499,37.1775015 145,37.4499988 145,37.69 Z M156.74,34.03 L154.79,35.83 L153.95,34.825 L156.905,32.38 L158.18,32.38 L158.18,43 L156.74,43 L156.74,34.03 Z M166.499999,43.18 C166.019997,43.18 165.567502,43.1075007 165.142499,42.9625 C164.717497,42.8174993 164.350001,42.6050014 164.039999,42.325 C163.729998,42.0449986 163.485,41.705002 163.304999,41.305 C163.124999,40.904998 163.034999,40.4550025 163.034999,39.955 C163.034999,39.6249984 163.087499,39.3200014 163.192499,39.04 C163.2975,38.7599986 163.439999,38.5075011 163.619999,38.2825 C163.8,38.0574989 164.012498,37.8675008 164.257499,37.7125 C164.502501,37.5574992 164.769998,37.4400004 165.059999,37.36 L165.059999,37.315 C164.859998,37.2649998 164.66,37.1750007 164.459999,37.045 C164.259998,36.9149994 164.0825,36.750001 163.927499,36.55 C163.772499,36.349999 163.645,36.1075014 163.544999,35.8225 C163.444999,35.5374986 163.394999,35.2100019 163.394999,34.84 C163.394999,34.439998 163.477499,34.0775016 163.642499,33.7525 C163.8075,33.4274984 164.032498,33.1500012 164.317499,32.92 C164.602501,32.6899989 164.932498,32.5125006 165.307499,32.3875 C165.682501,32.2624994 166.079997,32.2 166.499999,32.2 C166.920002,32.2 167.317498,32.2624994 167.692499,32.3875 C168.067501,32.5125006 168.397498,32.6899989 168.682499,32.92 C168.967501,33.1500012 169.192499,33.4274984 169.357499,33.7525 C169.5225,34.0775016 169.604999,34.439998 169.604999,34.84 C169.604999,35.2100019 169.555,35.5374986 169.454999,35.8225 C169.354999,36.1075014 169.2275,36.349999 169.072499,36.55 C168.917499,36.750001 168.74,36.9149994 168.539999,37.045 C168.339998,37.1750007 168.14,37.2649998 167.939999,37.315 L167.939999,37.36 C168.230001,37.4400004 168.497498,37.5574992 168.742499,37.7125 C168.987501,37.8675008 169.199999,38.0574989 169.379999,38.2825 C169.56,38.5075011 169.702499,38.7599986 169.807499,39.04 C169.9125,39.3200014 169.964999,39.6249984 169.964999,39.955 C169.964999,40.4550025 169.875,40.904998 169.694999,41.305 C169.514999,41.705002 169.270001,42.0449986 168.959999,42.325 C168.649998,42.6050014 168.282502,42.8174993 167.857499,42.9625 C167.432497,43.1075007 166.980002,43.18 166.499999,43.18 Z M164.834999,35.05 C164.834999,35.2600011 164.872499,35.464999 164.947499,35.665 C165.0225,35.865001 165.129999,36.0424992 165.269999,36.1975 C165.41,36.3525008 165.582498,36.4799995 165.787499,36.58 C165.992501,36.6800005 166.229998,36.73 166.499999,36.73 C166.780001,36.73 167.022498,36.6825005 167.227499,36.5875 C167.432501,36.4924995 167.604999,36.3675008 167.744999,36.2125 C167.885,36.0574992 167.989999,35.880001 168.059999,35.68 C168.13,35.479999 168.164999,35.2700011 168.164999,35.05 C168.164999,34.5599976 168.012501,34.1575016 167.707499,33.8425 C167.402498,33.5274984 167.000002,33.37 166.499999,33.37 C166.039997,33.37 165.647501,33.5249985 165.322499,33.835 C164.997498,34.1450016 164.834999,34.5499975 164.834999,35.05 Z M166.499999,41.92 C167.100002,41.92 167.587498,41.7375018 167.962499,41.3725 C168.337501,41.0074982 168.524999,40.5350029 168.524999,39.955 C168.524999,39.6349984 168.4725,39.3525012 168.367499,39.1075 C168.262499,38.8624988 168.1175,38.6575008 167.932499,38.4925 C167.747499,38.3274992 167.532501,38.2025004 167.287499,38.1175 C167.042498,38.0324996 166.780001,37.99 166.499999,37.99 C165.909997,38.0000001 165.425001,38.1874982 165.044999,38.5525 C164.664998,38.9175018 164.474999,39.3849972 164.474999,39.955 C164.474999,40.2650016 164.529999,40.5424988 164.639999,40.7875 C164.75,41.0325012 164.897499,41.2374992 165.082499,41.4025 C165.2675,41.5675008 165.482498,41.6949996 165.727499,41.785 C165.972501,41.8750005 166.229998,41.92 166.499999,41.92 Z" id="NIGERIA-2018" fill="#FFFFFF"></path>
        </g>
    </g>
</svg>