<?xml version="1.0" encoding="UTF-8"?>
<svg width="1200" height="300" viewBox="0 0 1200 300" xmlns="http://www.w3.org/2000/svg">
    <g fill="#ffffff" opacity="0.15">
        <!-- Skyline buildings -->
        <path d="M0,300 L0,150 L50,150 L50,100 L100,100 L100,150 L150,150 L150,50 L200,50 L200,150 L250,150 L250,200 L300,200 L300,100 L350,100 L350,150 L400,150 L400,50 L450,50 L450,200 L500,200 L500,150 L550,150 L550,100 L600,100 L600,150 L650,150 L650,50 L700,50 L700,200 L750,200 L750,150 L800,150 L800,100 L850,100 L850,150 L900,150 L900,50 L950,50 L950,150 L1000,150 L1000,200 L1050,200 L1050,100 L1100,100 L1100,150 L1150,150 L1150,50 L1200,50 L1200,300 Z"/>
        <!-- Trees -->
        <path d="M75,150 L60,150 L67.5,130 Z"/>
        <path d="M275,200 L260,200 L267.5,180 Z"/>
        <path d="M475,200 L460,200 L467.5,180 Z"/>
        <path d="M675,200 L660,200 L667.5,180 Z"/>
        <path d="M875,150 L860,150 L867.5,130 Z"/>
        <path d="M1075,200 L1060,200 L1067.5,180 Z"/>
    </g>
</svg>
