<svg width="49" height="49" viewBox="0 0 49 49" fill="none" xmlns="http://www.w3.org/2000/svg">
<g id="SVG">
<g id="Group">
<path id="Vector" d="M41 18.2056C41.0017 15.425 40.3006 12.689 38.9618 10.2519C37.6231 7.81475 35.6902 5.75546 33.3426 4.26529C30.995 2.77512 28.3088 1.90241 25.5337 1.72821C22.7585 1.55402 19.9843 2.08399 17.4688 3.2689C14.9533 4.45382 12.778 6.25524 11.1451 8.50585C9.51208 10.7565 8.47436 13.3833 8.12829 16.1423C7.78222 18.9013 8.13903 21.703 9.16556 24.2872C10.1921 26.8714 11.8551 29.1542 14 30.9237V45.2056C13.9998 45.4614 14.0651 45.713 14.1895 45.9365C14.314 46.16 14.4936 46.348 14.7112 46.4825C14.9287 46.617 15.1771 46.6937 15.4327 46.7052C15.6882 46.7166 15.9425 46.6626 16.1713 46.5481L24.5 42.3931L32.8306 46.5575C33.0395 46.6574 33.2685 46.7081 33.5 46.7056C33.8978 46.7056 34.2794 46.5476 34.5607 46.2663C34.842 45.985 35 45.6034 35 45.2056V30.9237C36.8767 29.378 38.388 27.436 39.4254 25.2371C40.4628 23.0382 41.0005 20.6369 41 18.2056ZM11 18.2056C11 15.5356 11.7918 12.9255 13.2752 10.7054C14.7586 8.48534 16.867 6.75501 19.3338 5.73323C21.8006 4.71144 24.515 4.4441 27.1337 4.965C29.7525 5.4859 32.1579 6.77165 34.0459 8.65966C35.934 10.5477 37.2197 12.9531 37.7406 15.5719C38.2615 18.1906 37.9942 20.905 36.9724 23.3718C35.9506 25.8386 34.2203 27.947 32.0002 29.4304C29.7801 30.9138 27.1701 31.7056 24.5 31.7056C20.9208 31.7016 17.4893 30.278 14.9584 27.7472C12.4276 25.2163 11.004 21.7848 11 18.2056ZM32 42.7794L25.1694 39.365C24.961 39.2607 24.7312 39.2064 24.4981 39.2064C24.2651 39.2064 24.0353 39.2607 23.8269 39.365L17 42.7794V32.9C19.3219 34.0868 21.8924 34.7056 24.5 34.7056C27.1076 34.7056 29.6781 34.0868 32 32.9V42.7794ZM24.5 28.7056C26.5767 28.7056 28.6068 28.0898 30.3335 26.936C32.0602 25.7823 33.406 24.1424 34.2007 22.2238C34.9955 20.3052 35.2034 18.194 34.7983 16.1572C34.3931 14.1203 33.3931 12.2494 31.9246 10.781C30.4562 9.31253 28.5853 8.3125 26.5485 7.90735C24.5117 7.50221 22.4004 7.71014 20.4818 8.50486C18.5632 9.29958 16.9233 10.6454 15.7696 12.3721C14.6158 14.0988 14 16.1289 14 18.2056C14.003 20.9895 15.1102 23.6584 17.0787 25.6269C19.0472 27.5954 21.7161 28.7026 24.5 28.7056ZM24.5 10.7056C25.9834 10.7056 27.4334 11.1455 28.6668 11.9696C29.9001 12.7937 30.8614 13.965 31.4291 15.3355C31.9968 16.7059 32.1453 18.2139 31.8559 19.6688C31.5665 21.1236 30.8522 22.46 29.8033 23.5089C28.7544 24.5578 27.418 25.2721 25.9632 25.5615C24.5083 25.8509 23.0003 25.7024 21.6299 25.1347C20.2594 24.567 19.0881 23.6057 18.264 22.3724C17.4399 21.139 17 19.689 17 18.2056C17 16.2165 17.7902 14.3088 19.1967 12.9023C20.6032 11.4958 22.5109 10.7056 24.5 10.7056Z" fill="black"/>
</g>
</g>
</svg>
