<svg width="49" height="49" viewBox="0 0 49 49" fill="none" xmlns="http://www.w3.org/2000/svg">
<g id="SVG">
<g id="Group">
<path id="Vector" d="M46.8706 23.5981C46.805 23.4499 45.2169 19.9268 41.6862 16.3962C36.9819 11.6918 31.04 9.20557 24.5 9.20557C17.96 9.20557 12.0181 11.6918 7.31373 16.3962C3.78311 19.9268 2.18748 23.4556 2.12936 23.5981C2.04407 23.7899 2 23.9975 2 24.2074C2 24.4174 2.04407 24.625 2.12936 24.8168C2.19498 24.9649 3.78311 28.4862 7.31373 32.0168C12.0181 36.7193 17.96 39.2056 24.5 39.2056C31.04 39.2056 36.9819 36.7193 41.6862 32.0168C45.2169 28.4862 46.805 24.9649 46.8706 24.8168C46.9559 24.625 47 24.4174 47 24.2074C47 23.9975 46.9559 23.7899 46.8706 23.5981ZM24.5 36.2056C18.7287 36.2056 13.6869 34.1074 9.51311 29.9712C7.80057 28.2681 6.34358 26.3261 5.18748 24.2056C6.34327 22.0848 7.80029 20.1428 9.51311 18.4399C13.6869 14.3037 18.7287 12.2056 24.5 12.2056C30.2712 12.2056 35.3131 14.3037 39.4869 18.4399C41.2027 20.1424 42.6629 22.0844 43.8219 24.2056C42.47 26.7293 36.5806 36.2056 24.5 36.2056ZM24.5 15.2056C22.72 15.2056 20.9799 15.7334 19.4999 16.7223C18.0198 17.7113 16.8663 19.1169 16.1851 20.7614C15.5039 22.406 15.3256 24.2155 15.6729 25.9614C16.0202 27.7072 16.8773 29.3109 18.136 30.5695C19.3947 31.8282 20.9983 32.6854 22.7442 33.0326C24.49 33.3799 26.2996 33.2017 27.9441 32.5205C29.5887 31.8393 30.9943 30.6857 31.9832 29.2057C32.9721 27.7257 33.5 25.9856 33.5 24.2056C33.4975 21.8194 32.5485 19.5316 30.8612 17.8443C29.1739 16.1571 26.8862 15.208 24.5 15.2056ZM24.5 30.2056C23.3133 30.2056 22.1533 29.8537 21.1666 29.1944C20.1799 28.5351 19.4108 27.598 18.9567 26.5017C18.5026 25.4053 18.3838 24.1989 18.6153 23.035C18.8468 21.8711 19.4182 20.802 20.2573 19.9629C21.0965 19.1238 22.1656 18.5524 23.3294 18.3209C24.4933 18.0893 25.6997 18.2082 26.7961 18.6623C27.8924 19.1164 28.8295 19.8855 29.4888 20.8721C30.1481 21.8588 30.5 23.0189 30.5 24.2056C30.5 25.7969 29.8678 27.323 28.7426 28.4482C27.6174 29.5734 26.0913 30.2056 24.5 30.2056Z" fill="black"/>
</g>
</g>
</svg>
