<svg width="49" height="49" viewBox="0 0 49 49" fill="none" xmlns="http://www.w3.org/2000/svg">
<g id="SVG">
<g id="Group">
<path id="Vector" d="M16.8576 10.0662C16.7365 9.80853 16.5445 9.59064 16.3041 9.43802C16.0637 9.28539 15.7849 9.20435 15.5001 9.20435C15.2154 9.20435 14.9365 9.28539 14.6961 9.43802C14.4558 9.59064 14.2638 9.80853 14.1426 10.0662L2.14264 35.5662C2.0588 35.7445 2.01089 35.9375 2.00165 36.1343C1.99241 36.3311 2.02202 36.5278 2.0888 36.7131C2.22365 37.0874 2.50167 37.3928 2.8617 37.5622C3.22173 37.7315 3.63428 37.7509 4.00859 37.616C4.3829 37.4812 4.68831 37.2031 4.85764 36.8431L7.98139 30.2056H23.0189L26.1426 36.8431C26.2265 37.0214 26.3446 37.1814 26.4903 37.314C26.636 37.4466 26.8063 37.5492 26.9917 37.616C27.177 37.6828 27.3737 37.7124 27.5705 37.7031C27.7673 37.6939 27.9603 37.646 28.1386 37.5622C28.3168 37.4783 28.4769 37.3602 28.6095 37.2145C28.7421 37.0688 28.8447 36.8985 28.9115 36.7131C28.9782 36.5278 29.0079 36.3311 28.9986 36.1343C28.9894 35.9375 28.9415 35.7445 28.8576 35.5662L16.8576 10.0662ZM9.39326 27.2056L15.5001 14.2287L21.607 27.2056H9.39326ZM38.0001 18.2056C35.6076 18.2056 33.7383 18.8562 32.4445 20.1406C32.1737 20.423 32.0238 20.8 32.0271 21.1913C32.0303 21.5825 32.1862 21.957 32.4617 22.2349C32.7371 22.5128 33.1102 22.6721 33.5015 22.6788C33.8927 22.6854 34.271 22.539 34.5558 22.2706C35.2683 21.5637 36.4308 21.2056 38.0001 21.2056C40.4808 21.2056 42.5001 22.8931 42.5001 24.9556V25.5594C41.169 24.6688 39.6017 24.1973 38.0001 24.2056C33.8639 24.2056 30.5001 27.2337 30.5001 30.9556C30.5001 34.6775 33.8639 37.7056 38.0001 37.7056C39.6023 37.7126 41.1698 37.2391 42.5001 36.3462C42.5188 36.7441 42.6947 37.1182 42.9892 37.3863C43.2837 37.6544 43.6726 37.7946 44.0704 37.7759C44.4683 37.7573 44.8424 37.5814 45.1105 37.2869C45.3786 36.9924 45.5188 36.6034 45.5001 36.2056V24.9556C45.5001 21.2337 42.1364 18.2056 38.0001 18.2056ZM38.0001 34.7056C35.5195 34.7056 33.5001 33.0181 33.5001 30.9556C33.5001 28.8931 35.5195 27.2056 38.0001 27.2056C40.4808 27.2056 42.5001 28.8931 42.5001 30.9556C42.5001 33.0181 40.4808 34.7056 38.0001 34.7056Z" fill="black"/>
</g>
</g>
</svg>
