<svg width="49" height="49" viewBox="0 0 49 49" fill="none" xmlns="http://www.w3.org/2000/svg">
<g id="SVG">
<g id="Group">
<path id="Vector" d="M26.2888 35.1481C26.5699 35.4294 26.7278 35.8107 26.7278 36.2084C26.7278 36.6061 26.5699 36.9874 26.2888 37.2687L24.4251 39.1437C22.4541 41.1134 19.7814 42.2195 16.9949 42.2187C14.2084 42.2178 11.5364 41.11 9.56664 39.139C7.59691 37.1681 6.49082 34.4953 6.4917 31.7088C6.49258 28.9223 7.60035 26.2503 9.57133 24.2806L14.0938 19.7581C15.987 17.8634 18.5326 16.7638 21.2099 16.6844C23.8871 16.6049 26.4935 17.5515 28.4957 19.3306C28.6434 19.4616 28.7639 19.6204 28.8503 19.798C28.9367 19.9755 28.9872 20.1683 28.999 20.3654C29.0109 20.5625 28.9838 20.76 28.9193 20.9466C28.8548 21.1333 28.7542 21.3054 28.6232 21.4531C28.4922 21.6008 28.3334 21.7213 28.1558 21.8077C27.9783 21.894 27.7854 21.9446 27.5884 21.9564C27.3913 21.9683 27.1938 21.9412 27.0072 21.8767C26.8205 21.8122 26.6484 21.7116 26.5007 21.5806C25.0707 20.3107 23.2095 19.635 21.2978 19.6918C19.3862 19.7486 17.5684 20.5336 16.2163 21.8862L11.6938 26.4031C10.287 27.8099 9.49668 29.7179 9.49668 31.7075C9.49668 33.697 10.287 35.605 11.6938 37.0118C13.1006 38.4186 15.0087 39.209 16.9982 39.209C18.9877 39.209 20.8958 38.4186 22.3026 37.0118L24.1663 35.1481C24.3056 35.0086 24.4711 34.898 24.6532 34.8225C24.8353 34.747 25.0305 34.7082 25.2276 34.7082C25.4247 34.7082 25.6199 34.747 25.802 34.8225C25.9841 34.898 26.1495 35.0086 26.2888 35.1481ZM39.4288 9.27309C37.4576 7.30625 34.7866 6.20166 32.002 6.20166C29.2173 6.20166 26.5463 7.30625 24.5751 9.27309L22.7113 11.1387C22.4301 11.4202 22.2722 11.8018 22.2724 12.1997C22.2726 12.5976 22.4308 12.9791 22.7123 13.2603C22.9937 13.5415 23.3754 13.6994 23.7732 13.6992C24.1711 13.699 24.5526 13.5408 24.8338 13.2593L26.6976 11.3956C28.1044 9.98878 30.0124 9.19845 32.002 9.19845C33.9915 9.19845 35.8995 9.98878 37.3063 11.3956C38.7131 12.8024 39.5035 14.7104 39.5035 16.7C39.5035 18.6895 38.7131 20.5975 37.3063 22.0043L32.7838 26.5306C31.431 27.8824 29.6129 28.6664 27.7012 28.7221C25.7895 28.7779 23.9288 28.1013 22.4995 26.8306C22.3517 26.6996 22.1796 26.599 21.993 26.5345C21.8064 26.47 21.6089 26.4429 21.4118 26.4548C21.0138 26.4787 20.6415 26.6597 20.377 26.9581C20.246 27.1058 20.1453 27.2779 20.0809 27.4645C20.0164 27.6512 19.9893 27.8487 20.0011 28.0457C20.025 28.4438 20.2061 28.816 20.5045 29.0806C22.5062 30.8601 25.1123 31.8074 27.7895 31.7287C30.4668 31.6499 33.0127 30.551 34.9063 28.6568L39.4288 24.1343C41.3968 22.1629 42.5021 19.4912 42.5021 16.7056C42.5021 13.92 41.3968 11.2483 39.4288 9.27684V9.27309Z" fill="black"/>
</g>
</g>
</svg>
