<svg width="49" height="49" viewBox="0 0 49 49" fill="none" xmlns="http://www.w3.org/2000/svg">
<g id="SVG">
<g id="Group">
<path id="Vector" d="M38 7.70557H11C10.2044 7.70557 9.44129 8.02164 8.87868 8.58425C8.31607 9.14685 8 9.90992 8 10.7056V37.7056C8 38.5012 8.31607 39.2643 8.87868 39.8269C9.44129 40.3895 10.2044 40.7056 11 40.7056H38C38.7956 40.7056 39.5587 40.3895 40.1213 39.8269C40.6839 39.2643 41 38.5012 41 37.7056V10.7056C41 9.90992 40.6839 9.14685 40.1213 8.58425C39.5587 8.02164 38.7956 7.70557 38 7.70557ZM38 22.7056H26V10.7056H38V22.7056ZM23 10.7056V22.7056H11V10.7056H23ZM11 25.7056H23V37.7056H11V25.7056ZM38 37.7056H26V25.7056H38V37.7056Z" fill="black"/>
</g>
</g>
</svg>
